<?xml version="1.0" encoding="UTF-8"?><svg xmlns="http://www.w3.org/2000/svg" viewBox="0 0 25.22 14.63"><defs><style>.d{fill:#fff;}</style></defs><g id="a"/><g id="b"><g id="c"><g><path class="d" d="M.06,10.44h.98l-.07,.52h-.16v1.43h.2l-.03,.5H0l.05-.51h.21v-1.3l.23-.13H0l.05-.52Z"/><path class="d" d="M2.12,10.27h.57v.18h.61c.15,.02,.23,.11,.25,.25v1.63c-.06,.26-.15,.42-.26,.49s-.25,.11-.41,.11v-.55c.1,0,.14-.22,.12-.7v-.69h-.31v1.81l-.58,.1v-1.92h-.24v1.84l-.58,.07v-1.82l.19-.12h-.25l.15-.53h.73v-.18Z"/><path class="d" d="M5.36,10.45c.18,.03,.28,.16,.28,.36v.91c-.02,.19-.12,.28-.3,.28h-.74l-.17-.31v.82c-.03,.18-.09,.29-.19,.34s-.25,.06-.45,.06v-.47c.08,.02,.12-.1,.12-.36v-.96l.28-.16h-.42l.11-.51h1.49Zm-.94,.51v.46h.68v-.46h-.68Z"/><path class="d" d="M5.94,10.44h1.73l-.14,.54h-.87v.27h.96l-.09,.49h-.89c-.02,.26,0,.43,.05,.51s.13,.13,.25,.13h.66l-.09,.51c-.53,.01-.84,0-.92-.05s-.17-.12-.26-.22-.15-.26-.17-.46v-.42h-.3l.07-.49h.24v-.28h-.32l.09-.53Z"/><path class="d" d="M7.93,10.44h1.55c.11,.01,.18,.08,.23,.21v.72c-.04,.17-.09,.28-.15,.34-.07,.06-.18,.12-.35,.2l.14,.23c.11,.17,.25,.26,.45,.29l-.04,.55-.29-.05c-.19-.04-.39-.23-.6-.59l-.11-.22-.28,.13v.64h-.51v-.47l-.2-.42,.19-.12v-.76l.25-.14h-.39l.11-.53Zm.53,.54v.69l.54-.21c.13-.05,.2-.13,.2-.23v-.25h-.73Z"/><path class="d" d="M9.99,10.44h.98l-.07,.52h-.16v1.43h.2l-.03,.5h-.98l.05-.51h.21v-1.3l.23-.13h-.48l.05-.52Z"/><path class="d" d="M11.71,10.44v.24l.14-.24h1.19c.15,.04,.22,.25,.21,.62v1.62c-.03,.13-.14,.2-.34,.21h-1.37c-.2,0-.32-.08-.35-.27v-2.07l.53-.11Zm0,.53v1.38h1v-1.38h-1Z"/><path class="d" d="M16.02,10.45c.32,.08,.49,.31,.51,.71h-.48c0-.13-.09-.18-.24-.17h-.64c-.13,.29-.2,.5-.21,.65,0,.15,.03,.28,.11,.41s.17,.22,.27,.28,.23,.07,.4,.06,.33-.13,.47-.33l.32,.4c-.19,.18-.34,.3-.46,.36s-.27,.09-.46,.09c-.19,0-.37-.03-.52-.11-.16-.08-.3-.22-.44-.43-.13-.21-.19-.45-.18-.71,.01-.27,.05-.44,.1-.51l.36-.16h-.43l.03-.17,.04-.16,.08-.21h1.36Z"/><path class="d" d="M16.7,10.45h.54v.83h.79v-.83h.54v.84h.09l.04,.49h-.14v.79c-.04,.11-.08,.18-.14,.21-.05,.04-.14,.06-.25,.08-.11,.02-.23,.03-.34,.03v-.47c.11,0,.18-.05,.2-.14v-.5h-.66l-.14-.23v1.29l-.54,.09v-2.5Z"/><path class="d" d="M18.9,10.44h.98l-.07,.52h-.16v1.43h.2l-.03,.5h-.98l.05-.51h.21v-1.3l.23-.13h-.48l.05-.52Z"/><path class="d" d="M20.1,10.45h.52v.39l.06-.15c.23,.06,.4,.13,.51,.21,.11,.08,.22,.2,.34,.37l.02,.07v-.89h.52v2.02c0,.09-.03,.19-.12,.29-.09,.1-.27,.15-.54,.13v-.51c.12,0,.17-.09,.15-.23,0-.08-.02-.17-.05-.27-.04-.1-.15-.22-.34-.38-.19-.16-.37-.26-.55-.31v1.7h-.52v-2.45Z"/><path class="d" d="M22.79,10.44v.24l.14-.24h1.19c.15,.04,.22,.25,.21,.62v1.62c-.03,.13-.14,.2-.34,.21h-1.37c-.2,0-.32-.08-.35-.27v-2.07l.53-.11Zm0,.53v1.38h1v-1.38h-1Z"/></g><g><path class="d" d="M6.62,14.63l-.2-.35h-.11v.35h-.14v-.88h.3c.07,0,.12,.01,.17,.04,.05,.02,.08,.06,.11,.1,.02,.04,.03,.08,.03,.13,0,.06-.02,.11-.05,.16-.03,.05-.08,.08-.15,.1l.22,.37h-.17Zm-.31-.47h.16c.05,0,.09-.01,.12-.04,.03-.03,.04-.06,.04-.11s-.01-.08-.04-.11c-.03-.03-.07-.04-.12-.04h-.16v.3Z"/><path class="d" d="M7.49,13.86v.26h.3v.12h-.3v.27h.34v.12h-.49v-.88h.49v.12h-.34Z"/><path class="d" d="M8.52,14.6s-.08-.05-.11-.09c-.03-.04-.04-.08-.04-.13h.15s.02,.07,.04,.09c.03,.02,.06,.04,.11,.04,.05,0,.09-.01,.12-.04,.03-.02,.04-.06,.04-.09,0-.03,0-.05-.03-.07-.02-.02-.04-.03-.06-.04-.03-.01-.06-.02-.11-.03-.06-.02-.1-.03-.14-.05-.04-.02-.07-.04-.09-.07s-.04-.08-.04-.13c0-.05,.01-.1,.04-.13s.06-.07,.11-.09c.05-.02,.1-.03,.16-.03,.09,0,.16,.02,.21,.06,.05,.04,.08,.1,.09,.18h-.16s-.02-.06-.05-.08c-.03-.02-.06-.03-.11-.03-.04,0-.08,.01-.1,.03-.03,.02-.04,.05-.04,.09,0,.03,0,.05,.02,.07,.02,.02,.04,.03,.06,.04,.03,0,.06,.02,.1,.03,.06,.02,.11,.03,.14,.05,.04,.02,.07,.04,.09,.07s.04,.08,.04,.13c0,.04-.01,.09-.04,.13-.02,.04-.06,.07-.11,.1-.05,.02-.1,.04-.16,.04-.06,0-.11,0-.16-.03Z"/><path class="d" d="M10.11,13.74v.12h-.23v.76h-.14v-.76h-.24v-.12h.62Z"/><path class="d" d="M11.17,14.45h-.37l-.06,.18h-.15l.32-.88h.17l.32,.88h-.15l-.06-.18Zm-.04-.12l-.14-.41-.14,.41h.29Z"/><path class="d" d="M12.05,13.74v.56c0,.07,.02,.12,.05,.15,.04,.03,.08,.05,.15,.05s.11-.02,.15-.05c.04-.03,.05-.08,.05-.15v-.56h.14v.56c0,.07-.02,.13-.05,.18s-.07,.09-.13,.11c-.05,.02-.11,.04-.17,.04s-.12-.01-.17-.04c-.05-.02-.09-.06-.12-.11s-.05-.11-.05-.18v-.56h.15Z"/><path class="d" d="M13.62,14.63l-.2-.35h-.11v.35h-.14v-.88h.3c.07,0,.12,.01,.17,.04,.05,.02,.08,.06,.11,.1,.02,.04,.03,.08,.03,.13,0,.06-.02,.11-.05,.16-.03,.05-.08,.08-.15,.1l.22,.37h-.17Zm-.31-.47h.16c.05,0,.09-.01,.12-.04,.03-.03,.04-.06,.04-.11s-.01-.08-.04-.11c-.03-.03-.07-.04-.12-.04h-.16v.3Z"/><path class="d" d="M14.87,14.45h-.37l-.06,.18h-.15l.32-.88h.17l.32,.88h-.15l-.06-.18Zm-.04-.12l-.14-.41-.14,.41h.29Z"/><path class="d" d="M16.33,14.63h-.14l-.44-.66v.66h-.14v-.88h.14l.44,.66v-.66h.14v.88Z"/><path class="d" d="M17.47,13.74v.12h-.23v.76h-.14v-.76h-.24v-.12h.62Z"/><path class="d" d="M18.15,13.86v.26h.3v.12h-.3v.27h.34v.12h-.49v-.88h.49v.12h-.34Z"/></g><path class="d" d="M25.06,9.58s.09,.07,.11,.12,.04,.1,.04,.17-.01,.12-.04,.17-.07,.09-.11,.12-.1,.04-.17,.04-.12-.01-.17-.04-.09-.07-.11-.12-.04-.1-.04-.17,.01-.12,.04-.17,.07-.09,.11-.12c.05-.03,.1-.04,.17-.04s.12,.01,.17,.04Zm.01,.46s.07-.11,.07-.18-.02-.14-.07-.18c-.04-.05-.1-.07-.18-.07s-.13,.02-.18,.07c-.04,.05-.07,.11-.07,.18s.02,.14,.07,.18c.04,.05,.1,.07,.18,.07s.13-.02,.18-.07Zm-.05-.18s-.03,.03-.05,.04l.08,.13h-.12l-.07-.12h-.01v.12h-.1v-.33h.16s.06,0,.09,.03c.02,.02,.03,.05,.03,.08,0,.02,0,.04-.02,.06Zm-.16-.03h.05s.02,0,.02,0c0,0,0-.01,0-.02,0,0,0-.01,0-.02,0,0-.01,0-.02,0h-.05v.05Z"/><g><path class="d" d="M8.4,3.46c0,.05,0,.11,0,.16-.05,.89,.1,1.74,.49,2.55,.36,.74,.89,1.32,1.62,1.71,.41,.22,.85,.35,1.31,.42,1.28,.2,2.58-.35,3.38-1.25,.5-.56,.82-1.21,.96-1.94,0-.02,0-.03,0-.05,0,0,0-.01,0-.03h-4.06l4.73-.61s0,.08,0,.11c-.08,1.58-.77,2.82-2.09,3.69-.78,.52-1.66,.74-2.59,.71-.72-.02-1.39-.2-2.02-.55-.39-.22-.72-.52-1.01-.87-.5-.62-.82-1.34-.94-2.13-.09-.56-.07-1.11,.11-1.66,.03-.1,.07-.19,.11-.29h.02Z"/><path class="d" d="M16.7,.28c.06,.08,.11,.16,.22,.22l-.15-.27c.12-.07,.24-.14,.35-.21h.02c.12-.05,.22-.02,.27,.06,.05,.08,.03,.2-.06,.28-.04,.04-.09,.07-.14,.09-.91,.51-1.82,1.03-2.74,1.54-1.24,.69-2.47,1.39-3.71,2.08-.04,.02-.09,.05-.13,.07-.02,0-.05,0-.08-.01,0-.03,.01-.06,.03-.08,.02-.02,.04-.03,.07-.05,1.52-.94,3.05-1.88,4.57-2.82,.47-.29,.94-.58,1.41-.87l.06-.04Z"/><path class="d" d="M17.19,1.01c.11,.18,.14,.2,.24,.26l-.16-.3c.11-.06,.2-.12,.32-.15,.03,0,.06,0,.09,0,.14,0,.21,.13,.16,.26-.03,.08-.1,.13-.18,.17-.16,.08-.32,.15-.48,.22-2.1,.99-4.2,1.97-6.29,2.96-.04,.02-.09,.03-.13,.04-.02,0-.04-.01-.05-.03,0,0,0-.04,.01-.05,.03-.02,.06-.05,.09-.06,.59-.31,1.18-.62,1.77-.92,1.5-.78,2.99-1.56,4.49-2.33,.04-.02,.08-.04,.12-.06Z"/><path class="d" d="M11.71,7.71c-.59-.06-1.1-.31-1.53-.7-.64-.56-1.05-1.27-1.23-2.11-.11-.53-.09-1.06,.12-1.56,.09-.2,.2-.39,.36-.57,0,.03,0,.04-.01,.05-.25,.58-.29,1.19-.16,1.81,.14,.67,.45,1.26,.89,1.79,.42,.51,.93,.92,1.5,1.25,.02,.01,.04,.02,.06,.04Z"/><path class="d" d="M11.98,7.17c-.22-.07-.43-.18-.63-.31-.71-.48-1.23-1.12-1.53-1.93-.12-.34-.2-.68-.19-1.04,0-.19,.03-.38,.12-.56,.12-.24,.3-.29,.53-.14,.18,.12,.3,.3,.39,.5,0,0-.02-.02-.03-.03,0,0-.01-.02-.02-.03-.09-.09-.18-.18-.27-.26-.03-.03-.07-.05-.11-.07-.12-.05-.22-.01-.24,.11-.02,.14-.03,.28-.03,.41,.01,.59,.2,1.12,.49,1.62,.31,.53,.7,.98,1.16,1.39,.12,.11,.25,.21,.37,.32Z"/><path class="d" d="M13.91,7.48c-.37,.05-.91-.15-1.16-.68-.24-.49-.15-1.07,.23-1.39-.01,.04-.02,.07-.03,.1-.07,.2-.11,.4-.07,.61,.03,.18,.11,.35,.23,.49,.14,.16,.29,.32,.44,.47,.1,.11,.21,.21,.31,.32,.02,.02,.04,.05,.06,.07Z"/><path class="d" d="M8.01,5.79c-.68-.36-1.39-.32-2.11-.14,.13-.26,.66-.54,1.01-.54,.5,0,.83,.3,1.09,.69Z"/><path class="d" d="M14.68,6.43c-.27,0-.48-.2-.48-.47,0-.27,.21-.49,.48-.49,.26,0,.48,.21,.48,.47,0,.27-.21,.48-.48,.49Zm-.17-.28c.14,0,.25-.11,.25-.25,0-.13-.11-.24-.24-.24-.14,0-.25,.11-.25,.25,0,.14,.11,.24,.24,.24Z"/><path class="d" d="M11.07,4.73c0,.11,0,.2,0,.3,.03,.25,.14,.47,.27,.68,.2,.3,.44,.55,.74,.74,.02,.01,.04,.03,.05,.05-.03,0-.06-.01-.09-.02-.37-.1-.66-.32-.9-.6-.13-.15-.24-.31-.31-.5-.04-.1-.06-.2-.06-.31,0-.19,.11-.31,.3-.34Z"/><path class="d" d="M11.67,5.41c-.13-.2-.28-.36-.53-.39,.02-.06,.05-.08,.1-.07,.05,0,.1,.02,.14,.04,.16,.1,.26,.24,.29,.42Z"/></g></g></g></svg>