<?xml version="1.0" encoding="UTF-8"?><svg xmlns="http://www.w3.org/2000/svg" viewBox="0 0 26.42 15.33"><defs><style>.d{fill:#fff;}.e{fill:#ecca00;}.f{fill:#ec0000;}</style></defs><g id="a"/><g id="b"><g id="c"><g><path class="d" d="M.06,10.94H1.09l-.08,.54h-.17v1.5h.21l-.03,.53H0l.05-.53h.22v-1.36l.24-.13H0l.05-.54Z"/><path class="d" d="M2.22,10.76h.6v.19h.64c.16,.02,.24,.11,.26,.26v1.71c-.07,.27-.16,.44-.27,.52-.12,.07-.26,.11-.43,.11v-.57c.1,0,.15-.23,.13-.73v-.73h-.32v1.9l-.61,.11v-2.01h-.25v1.93l-.61,.08v-1.9l.2-.12h-.26l.16-.56h.76v-.19Z"/><path class="d" d="M5.62,10.95c.19,.04,.29,.16,.3,.38v.96c-.02,.2-.12,.29-.31,.29h-.77l-.18-.32v.86c-.03,.19-.09,.31-.19,.35s-.26,.07-.48,.06v-.5c.09,.02,.13-.1,.12-.38v-1l.29-.16h-.44l.11-.54h1.56Zm-.99,.54v.49h.72v-.49h-.72Z"/><path class="d" d="M6.22,10.94h1.81l-.15,.57h-.92v.28h1l-.09,.51h-.93c-.02,.27,0,.45,.05,.54,.05,.09,.14,.13,.26,.13h.69l-.09,.53c-.55,.01-.88,0-.96-.05-.09-.05-.18-.12-.28-.23-.1-.11-.16-.27-.18-.48v-.44h-.31l.08-.51h.25v-.29h-.33l.09-.56Z"/><path class="d" d="M8.31,10.94h1.62c.11,.01,.19,.09,.24,.22v.76c-.04,.17-.09,.29-.16,.35-.07,.06-.19,.13-.37,.21l.15,.24c.11,.17,.27,.27,.47,.3l-.04,.58-.3-.06c-.2-.04-.41-.25-.63-.62l-.12-.23-.3,.14v.67h-.53v-.5l-.21-.44,.2-.13v-.79l.26-.14h-.41l.12-.56Zm.56,.56v.73l.56-.22c.14-.05,.21-.13,.21-.24v-.26h-.77Z"/><path class="d" d="M10.46,10.94h1.03l-.08,.54h-.17v1.5h.21l-.03,.53h-1.03l.05-.53h.22v-1.36l.24-.13h-.51l.05-.54Z"/><path class="d" d="M12.26,10.93v.25l.15-.25h1.24c.15,.04,.23,.26,.22,.65v1.7c-.03,.14-.15,.21-.35,.22h-1.44c-.21,0-.34-.08-.37-.28v-2.17l.55-.11Zm0,.56v1.45h1.05v-1.45h-1.05Z"/><path class="d" d="M16.78,10.95c.33,.08,.51,.33,.53,.74h-.5c0-.13-.09-.19-.25-.18h-.67c-.14,.3-.21,.52-.22,.68s.03,.3,.12,.43c.09,.13,.18,.23,.28,.29s.24,.08,.42,.06,.34-.13,.49-.34l.34,.42c-.2,.19-.35,.32-.48,.38-.12,.06-.28,.1-.48,.1s-.38-.04-.55-.12-.32-.23-.46-.45c-.14-.22-.2-.47-.18-.75s.05-.46,.11-.54l.38-.17h-.45l.03-.18,.04-.17,.08-.21h1.42Z"/><path class="d" d="M17.49,10.95h.57v.87h.83v-.87h.57v.88h.1l.04,.52h-.14v.83c-.04,.11-.08,.19-.14,.23-.06,.04-.15,.07-.27,.08-.12,.02-.24,.03-.36,.03v-.5c.11,0,.18-.06,.21-.14v-.53h-.69l-.15-.24v1.35l-.57,.1v-2.61Z"/><path class="d" d="M19.8,10.94h1.03l-.08,.54h-.17v1.5h.21l-.03,.53h-1.03l.05-.53h.22v-1.36l.24-.13h-.51l.05-.54Z"/><path class="d" d="M21.05,10.95h.55v.41l.06-.16c.24,.06,.42,.14,.53,.22,.12,.08,.23,.21,.36,.39l.03,.08v-.93h.54v2.11c0,.1-.03,.2-.12,.31-.09,.11-.28,.16-.57,.14v-.53c.13,0,.18-.09,.16-.24,0-.09-.02-.18-.06-.28-.04-.1-.16-.23-.36-.4-.2-.17-.39-.27-.57-.33v1.78h-.55v-2.57Z"/><path class="d" d="M23.87,10.93v.25l.15-.25h1.24c.15,.04,.23,.26,.22,.65v1.7c-.03,.14-.15,.21-.35,.22h-1.44c-.21,0-.34-.08-.37-.28v-2.17l.55-.11Zm0,.56v1.45h1.05v-1.45h-1.05Z"/></g><g><path class="d" d="M6.94,15.32l-.21-.37h-.12v.37h-.15v-.92h.32c.07,0,.13,.01,.18,.04,.05,.02,.09,.06,.11,.1s.04,.09,.04,.14c0,.06-.02,.11-.05,.16s-.09,.08-.16,.1l.23,.38h-.18Zm-.33-.49h.17c.06,0,.1-.01,.13-.04s.04-.07,.04-.11-.01-.09-.04-.11c-.03-.03-.07-.04-.13-.04h-.17v.31Z"/><path class="d" d="M7.85,14.52v.27h.32v.12h-.32v.28h.36v.12h-.51v-.93h.51v.12h-.36Z"/><path class="d" d="M8.93,15.3s-.09-.05-.12-.09-.04-.09-.04-.14h.16s.02,.07,.05,.1c.03,.03,.07,.04,.12,.04s.09-.01,.12-.04,.04-.06,.04-.1c0-.03,0-.06-.03-.08-.02-.02-.04-.03-.07-.05-.03-.01-.06-.02-.11-.03-.06-.02-.11-.03-.15-.05-.04-.02-.07-.04-.1-.08-.03-.03-.04-.08-.04-.14,0-.05,.01-.1,.04-.14,.03-.04,.06-.07,.11-.09,.05-.02,.1-.03,.17-.03,.09,0,.16,.02,.22,.07,.06,.04,.09,.11,.1,.18h-.17s-.02-.06-.05-.09c-.03-.02-.07-.04-.12-.04-.04,0-.08,.01-.11,.03-.03,.02-.04,.05-.04,.1,0,.03,0,.05,.03,.07,.02,.02,.04,.03,.07,.04,.03,.01,.06,.02,.11,.03,.06,.02,.11,.03,.15,.05,.04,.02,.07,.04,.1,.08,.03,.04,.04,.08,.04,.14,0,.05-.01,.09-.04,.13s-.06,.08-.11,.1c-.05,.03-.11,.04-.17,.04-.06,0-.12-.01-.17-.03Z"/><path class="d" d="M10.59,14.4v.12h-.25v.8h-.15v-.8h-.25v-.12h.65Z"/><path class="d" d="M11.7,15.13h-.39l-.07,.19h-.16l.33-.93h.18l.33,.93h-.16l-.07-.19Zm-.04-.12l-.15-.43-.15,.43h.3Z"/><path class="d" d="M12.62,14.4v.59c0,.07,.02,.12,.06,.16,.04,.04,.09,.05,.15,.05s.12-.02,.15-.05c.04-.04,.06-.09,.06-.16v-.59h.15v.59c0,.08-.02,.14-.05,.19-.03,.05-.08,.09-.13,.12-.06,.03-.12,.04-.18,.04s-.13-.01-.18-.04-.1-.06-.13-.12c-.03-.05-.05-.12-.05-.19v-.59h.15Z"/><path class="d" d="M14.26,15.32l-.21-.37h-.12v.37h-.15v-.92h.32c.07,0,.13,.01,.18,.04,.05,.02,.09,.06,.11,.1s.04,.09,.04,.14c0,.06-.02,.11-.05,.16s-.09,.08-.16,.1l.23,.38h-.18Zm-.33-.49h.17c.06,0,.1-.01,.13-.04s.04-.07,.04-.11-.01-.09-.04-.11c-.03-.03-.07-.04-.13-.04h-.17v.31Z"/><path class="d" d="M15.58,15.13h-.39l-.07,.19h-.16l.33-.93h.18l.33,.93h-.16l-.07-.19Zm-.04-.12l-.15-.43-.15,.43h.3Z"/><path class="d" d="M17.11,15.32h-.15l-.46-.69v.69h-.15v-.93h.15l.46,.69v-.69h.15v.93Z"/><path class="d" d="M18.3,14.4v.12h-.25v.8h-.15v-.8h-.25v-.12h.65Z"/><path class="d" d="M19.01,14.52v.27h.32v.12h-.32v.28h.36v.12h-.51v-.93h.51v.12h-.36Z"/></g><path class="d" d="M26.25,10.03c.05,.03,.09,.07,.12,.12,.03,.05,.04,.11,.04,.17s-.01,.12-.04,.17c-.03,.05-.07,.09-.12,.12-.05,.03-.11,.04-.17,.04s-.12-.01-.17-.04c-.05-.03-.09-.07-.12-.12-.03-.05-.04-.11-.04-.17s.01-.12,.04-.17c.03-.05,.07-.09,.12-.12,.05-.03,.11-.04,.17-.04s.12,.01,.17,.04Zm.01,.48s.07-.11,.07-.19-.02-.14-.07-.19-.11-.07-.19-.07-.14,.02-.19,.07-.07,.11-.07,.19,.02,.14,.07,.19,.11,.07,.19,.07,.14-.02,.19-.07Zm-.06-.19s-.03,.03-.05,.04l.09,.13h-.12l-.07-.12h-.01v.12h-.1v-.35h.16s.07,.01,.09,.03c.02,.02,.03,.05,.03,.08,0,.02,0,.04-.02,.06Zm-.17-.03h.05s.02,0,.02,0,0-.01,0-.02,0-.02,0-.02-.01,0-.02,0h-.05v.05Z"/><g><path class="f" d="M8.79,3.63c0,.06,0,.11,0,.17-.05,.93,.1,1.82,.51,2.67,.38,.78,.93,1.39,1.7,1.8,.43,.23,.89,.37,1.37,.44,1.34,.21,2.7-.37,3.54-1.31,.52-.59,.86-1.26,1-2.04,0-.02,0-.03,0-.05,0,0,0-.01,0-.03h-4.25l4.96-.64s0,.08,0,.12c-.08,1.66-.8,2.96-2.19,3.87-.82,.54-1.73,.78-2.72,.75-.75-.02-1.46-.21-2.11-.58-.41-.23-.76-.54-1.05-.91-.53-.65-.85-1.4-.98-2.23-.09-.59-.07-1.17,.11-1.74,.03-.1,.08-.2,.11-.31h.02Z"/><path class="d" d="M17.5,.29c.06,.09,.12,.17,.23,.23l-.15-.28c.13-.08,.25-.15,.37-.22h.02c.12-.05,.23-.02,.29,.06,.05,.09,.03,.21-.06,.29-.04,.04-.09,.07-.14,.1-.96,.54-1.91,1.07-2.87,1.61-1.29,.73-2.59,1.45-3.88,2.18-.04,.03-.09,.05-.14,.07-.02,0-.05,0-.08-.01,0-.03,.01-.06,.03-.08,.02-.02,.05-.03,.07-.05,1.6-.99,3.19-1.97,4.79-2.95,.49-.3,.99-.61,1.48-.91l.06-.04Z"/><path class="d" d="M18,1.05c.12,.18,.14,.21,.25,.27l-.17-.31c.11-.06,.21-.13,.33-.16,.03,0,.06,0,.1,0,.14,.01,.22,.14,.17,.27-.03,.09-.1,.14-.18,.18-.17,.08-.33,.16-.5,.24-2.2,1.03-4.4,2.07-6.59,3.1-.04,.02-.09,.03-.14,.04-.02,0-.04-.01-.05-.03,0-.01,0-.04,.01-.05,.03-.03,.06-.05,.09-.07,.62-.32,1.24-.65,1.86-.97,1.57-.81,3.13-1.63,4.7-2.44,.04-.02,.08-.04,.12-.06Z"/><path class="d" d="M12.27,8.08c-.62-.06-1.15-.32-1.61-.73-.67-.59-1.11-1.33-1.29-2.21-.12-.56-.1-1.11,.13-1.64,.09-.21,.21-.41,.38-.6,0,.03-.01,.04-.01,.05-.27,.61-.3,1.25-.17,1.89,.15,.71,.47,1.32,.93,1.88,.44,.53,.97,.96,1.57,1.31,.02,.01,.04,.03,.07,.04Z"/><path class="d" d="M12.54,7.52c-.23-.08-.45-.19-.66-.33-.74-.51-1.29-1.17-1.6-2.02-.13-.35-.21-.71-.2-1.09,0-.2,.04-.4,.13-.58,.13-.26,.32-.31,.55-.14,.19,.13,.31,.32,.41,.52,0,0-.02-.02-.03-.03,0,0-.02-.02-.02-.03-.09-.09-.19-.19-.28-.28-.03-.03-.08-.05-.12-.07-.12-.05-.23-.01-.25,.12-.03,.14-.04,.29-.03,.43,.01,.61,.21,1.17,.51,1.7,.32,.56,.74,1.03,1.21,1.46,.13,.11,.26,.22,.39,.33Z"/><path class="d" d="M14.57,7.83c-.39,.05-.95-.16-1.22-.71-.25-.52-.15-1.12,.24-1.45-.01,.04-.02,.08-.03,.11-.07,.21-.11,.42-.07,.64,.03,.19,.11,.37,.24,.51,.15,.17,.31,.33,.46,.5,.11,.11,.22,.22,.32,.33,.02,.02,.04,.05,.06,.08Z"/><path class="e" d="M8.39,6.06c-.71-.38-1.45-.34-2.21-.15,.14-.27,.69-.57,1.06-.57,.53,0,.87,.31,1.14,.72Z"/><path class="e" d="M15.38,6.74c-.28,0-.5-.21-.5-.49,0-.28,.22-.51,.5-.51,.27,0,.5,.22,.51,.5,0,.28-.22,.51-.5,.51Zm-.18-.29c.14,0,.26-.11,.26-.26,0-.14-.12-.25-.25-.25-.14,0-.26,.11-.26,.26,0,.14,.11,.25,.25,.25Z"/><path class="d" d="M11.6,4.95c0,.11,0,.21,0,.31,.03,.26,.14,.5,.29,.71,.21,.31,.46,.57,.78,.78,.02,.01,.04,.03,.06,.06-.03,0-.07-.01-.1-.02-.38-.11-.69-.34-.95-.63-.14-.16-.25-.33-.33-.53-.04-.1-.07-.21-.06-.32,0-.2,.11-.32,.31-.36Z"/><path class="d" d="M12.22,5.66c-.13-.21-.29-.38-.55-.41,.02-.06,.06-.08,.1-.07,.05,0,.1,.02,.14,.05,.16,.1,.27,.25,.3,.44Z"/></g></g></g></svg>