<?xml version="1.0" encoding="UTF-8"?><svg xmlns="http://www.w3.org/2000/svg" viewBox="0 0 18.96 14.22"><defs><style>.d{fill:#ec0000;}</style></defs><g id="a"/><g id="b"><g id="c"><g><path class="d" d="M3.95,5.5c0,.09,0,.17-.01,.26-.08,1.41,.15,2.77,.77,4.04,.57,1.18,1.41,2.1,2.57,2.72,.65,.35,1.35,.55,2.08,.67,2.02,.31,4.09-.55,5.37-1.98,.8-.89,1.3-1.92,1.52-3.09,0-.02,0-.05,0-.07,0,0,0-.02-.01-.04h-6.45v-.02l7.51-.95c0,.07,0,.12,0,.18-.12,2.51-1.22,4.48-3.32,5.87-1.24,.82-2.63,1.18-4.12,1.13-1.14-.04-2.21-.33-3.2-.87-.63-.35-1.15-.82-1.6-1.37-.8-.99-1.29-2.12-1.49-3.38-.14-.89-.11-1.77,.17-2.63,.05-.16,.11-.31,.17-.46h.03Z"/><path class="d" d="M17.14,.44c.09,.13,.18,.26,.34,.36l-.23-.43c.19-.11,.37-.22,.55-.33,0,0,.02,0,.03-.01,.18-.07,.35-.02,.43,.11,.08,.13,.05,.31-.09,.44-.06,.06-.14,.1-.22,.15-1.45,.82-2.9,1.63-4.34,2.44-1.96,1.1-3.92,2.2-5.88,3.31-.07,.04-.14,.08-.21,.1-.03,.01-.08-.01-.12-.02,.01-.04,.02-.09,.04-.13,.02-.03,.07-.05,.11-.08,2.42-1.49,4.84-2.99,7.26-4.48,.75-.46,1.49-.92,2.24-1.38l.09-.06Z"/><path class="d" d="M17.91,1.6c.18,.28,.22,.32,.37,.41l-.25-.48c.17-.1,.32-.19,.5-.24,.05-.01,.1-.01,.15,0,.22,.02,.34,.21,.26,.41-.05,.13-.16,.21-.28,.27-.25,.12-.51,.24-.76,.36-3.33,1.57-6.66,3.13-9.99,4.69-.07,.03-.14,.05-.21,.07-.02,0-.07-.02-.08-.04-.01-.02,0-.06,.02-.08,.04-.04,.09-.07,.14-.1,.94-.49,1.88-.98,2.82-1.47,2.37-1.24,4.75-2.47,7.12-3.71,.06-.03,.12-.06,.19-.09Z"/><path class="d" d="M9.22,12.24c-.94-.1-1.74-.49-2.44-1.1-1.02-.9-1.67-2.01-1.95-3.34-.18-.84-.15-1.68,.19-2.48,.14-.32,.32-.62,.57-.9-.01,.05-.02,.07-.02,.08-.4,.93-.45,1.89-.25,2.87,.22,1.07,.72,2.01,1.41,2.84,.67,.81,1.47,1.46,2.39,1.98,.03,.02,.07,.04,.1,.06Z"/><path class="d" d="M9.63,11.39c-.36-.12-.69-.29-.99-.5-1.13-.77-1.96-1.77-2.43-3.06-.2-.53-.31-1.08-.31-1.65,0-.31,.05-.6,.19-.88,.19-.39,.48-.47,.84-.22,.29,.2,.47,.48,.62,.79-.01-.01-.03-.03-.04-.04-.01-.01-.02-.03-.04-.05-.14-.14-.28-.28-.43-.42-.05-.05-.11-.08-.18-.1-.19-.08-.34-.02-.38,.18-.04,.22-.05,.44-.05,.66,.02,.93,.31,1.78,.77,2.58,.49,.84,1.12,1.56,1.84,2.21,.19,.17,.39,.34,.59,.51Z"/><path class="d" d="M12.71,11.87c-.59,.08-1.44-.24-1.85-1.08-.37-.79-.23-1.69,.37-2.2-.02,.07-.04,.11-.05,.16-.1,.31-.17,.63-.11,.97,.05,.29,.17,.56,.36,.78,.22,.26,.47,.5,.7,.75,.16,.17,.33,.34,.49,.51,.03,.03,.06,.07,.09,.12Z"/><path class="d" d="M3.34,9.19c-1.08-.58-2.2-.51-3.34-.23,.21-.41,1.04-.86,1.61-.86,.8,0,1.32,.47,1.73,1.09Z"/><path class="d" d="M13.93,10.22c-.43,0-.76-.32-.76-.75,0-.43,.33-.77,.76-.78,.41,0,.76,.34,.77,.75,0,.43-.33,.77-.76,.77Zm-.28-.44c.22,0,.39-.17,.39-.39,0-.21-.18-.38-.39-.38-.22,0-.39,.17-.39,.39,0,.21,.17,.38,.38,.38Z"/><path class="d" d="M8.2,7.51c0,.17-.01,.32,0,.48,.04,.4,.21,.75,.43,1.08,.31,.47,.7,.87,1.18,1.18,.03,.02,.06,.04,.09,.09-.05-.01-.1-.02-.15-.03-.58-.16-1.04-.51-1.43-.96-.21-.24-.38-.5-.49-.8-.06-.16-.1-.32-.1-.49,0-.3,.17-.49,.48-.55Z"/><path class="d" d="M9.15,8.59c-.2-.31-.44-.57-.84-.62,.02-.09,.09-.12,.16-.11,.08,.01,.16,.03,.22,.07,.25,.15,.41,.37,.46,.67Z"/></g></g></g></svg>