<?xml version="1.0" encoding="UTF-8"?><svg xmlns="http://www.w3.org/2000/svg" viewBox="0 0 40 40"><defs><style>.d{fill:#fff;}</style></defs><g id="a"/><g id="b"><g id="c"><g><path class="d" d="M20,.89C9.47,.89,.89,9.47,.89,20s8.57,19.11,19.11,19.11,19.11-8.57,19.11-19.11S30.54,.89,20,.89Zm0,39.11c-2.7,0-5.32-.53-7.79-1.57-2.38-1.01-4.52-2.45-6.36-4.29-1.84-1.84-3.28-3.98-4.29-6.36-1.04-2.47-1.57-5.09-1.57-7.79s.53-5.32,1.57-7.79c1.01-2.38,2.45-4.52,4.29-6.36,1.84-1.84,3.98-3.28,6.36-4.29,2.47-1.04,5.09-1.57,7.79-1.57s5.32,.53,7.79,1.57c2.38,1.01,4.52,2.45,6.36,4.29,1.84,1.84,3.28,3.98,4.29,6.36,1.04,2.47,1.57,5.09,1.57,7.79s-.53,5.32-1.57,7.79c-1.01,2.38-2.45,4.52-4.29,6.36-1.84,1.84-3.98,3.28-6.36,4.29-2.47,1.04-5.09,1.57-7.79,1.57Z"/><path class="d" d="M20,3.35C10.82,3.35,3.35,10.82,3.35,20s7.47,16.65,16.65,16.65,16.65-7.47,16.65-16.65S29.18,3.35,20,3.35Zm0-.89c2.37,0,4.67,.47,6.83,1.38,2.09,.88,3.96,2.15,5.57,3.76,1.61,1.61,2.88,3.49,3.76,5.57,.92,2.16,1.38,4.46,1.38,6.83s-.47,4.67-1.38,6.83c-.88,2.09-2.15,3.96-3.76,5.58-1.61,1.61-3.49,2.88-5.57,3.76-2.16,.92-4.46,1.38-6.83,1.38s-4.67-.47-6.83-1.38c-2.09-.88-3.96-2.15-5.57-3.76-1.61-1.61-2.88-3.49-3.76-5.58-.92-2.16-1.38-4.46-1.38-6.83s.47-4.67,1.38-6.83c.88-2.09,2.15-3.96,3.76-5.57,1.61-1.61,3.49-2.88,5.57-3.76,2.16-.92,4.46-1.38,6.83-1.38Z"/><path class="d" d="M20,5.8c-7.83,0-14.2,6.37-14.2,14.2s6.37,14.2,14.2,14.2,14.2-6.37,14.2-14.2-6.37-14.2-14.2-14.2Zm0-.89c2.04,0,4.02,.4,5.88,1.19,1.8,.76,3.41,1.85,4.79,3.23,1.38,1.38,2.47,3,3.23,4.79,.79,1.86,1.19,3.84,1.19,5.88s-.4,4.02-1.19,5.88c-.76,1.8-1.85,3.41-3.23,4.79-1.38,1.38-3,2.47-4.79,3.23-1.86,.79-3.84,1.19-5.88,1.19s-4.02-.4-5.88-1.19c-1.8-.76-3.41-1.85-4.79-3.23-1.38-1.38-2.47-3-3.23-4.79-.79-1.86-1.19-3.84-1.19-5.88s.4-4.02,1.19-5.88c.76-1.8,1.85-3.41,3.23-4.79,1.38-1.38,3-2.47,4.79-3.23,1.86-.79,3.84-1.19,5.88-1.19Z"/><path class="d" d="M20,8.26c-6.48,0-11.75,5.27-11.75,11.75s5.27,11.75,11.75,11.75,11.75-5.27,11.75-11.75-5.27-11.75-11.75-11.75Zm0-.89c1.71,0,3.37,.34,4.93,1,1.5,.64,2.85,1.55,4.01,2.71,1.16,1.16,2.07,2.51,2.71,4.01,.66,1.56,1,3.21,1,4.93s-.34,3.37-1,4.93c-.64,1.5-1.55,2.85-2.71,4.01-1.16,1.16-2.51,2.07-4.01,2.71-1.56,.66-3.21,1-4.93,1s-3.37-.34-4.93-1c-1.5-.64-2.85-1.55-4.01-2.71-1.16-1.16-2.07-2.51-2.71-4.01-.66-1.56-1-3.21-1-4.93s.34-3.37,1-4.93c.64-1.5,1.55-2.85,2.71-4.01,1.16-1.16,2.51-2.07,4.01-2.71,1.56-.66,3.21-1,4.93-1Z"/><path class="d" d="M20,10.71c-5.12,0-9.29,4.17-9.29,9.29s4.17,9.29,9.29,9.29,9.29-4.17,9.29-9.29-4.17-9.29-9.29-9.29Zm0-.89c1.38,0,2.72,.27,3.97,.81,1.21,.51,2.3,1.25,3.23,2.18,.93,.93,1.67,2.02,2.18,3.23,.53,1.25,.81,2.59,.81,3.97s-.27,2.72-.81,3.97c-.51,1.21-1.25,2.3-2.18,3.23-.93,.93-2.02,1.67-3.23,2.18-1.25,.53-2.59,.81-3.97,.81s-2.72-.27-3.97-.81c-1.21-.51-2.3-1.25-3.23-2.18-.93-.93-1.67-2.02-2.18-3.23-.53-1.25-.81-2.59-.81-3.97s.27-2.72,.81-3.97c.51-1.21,1.25-2.3,2.18-3.23,.93-.93,2.02-1.67,3.23-2.18,1.25-.53,2.59-.81,3.97-.81Z"/><path class="d" d="M20,13.16c-3.77,0-6.84,3.07-6.84,6.84s3.07,6.84,6.84,6.84,6.84-3.07,6.84-6.84-3.07-6.84-6.84-6.84Zm0-.89c1.05,0,2.07,.21,3.02,.61,.92,.39,1.74,.95,2.45,1.65,.7,.7,1.26,1.53,1.65,2.45,.4,.95,.61,1.97,.61,3.02s-.21,2.07-.61,3.02c-.39,.92-.95,1.74-1.65,2.45-.7,.7-1.53,1.26-2.45,1.65-.95,.4-1.97,.61-3.02,.61s-2.07-.21-3.02-.61c-.92-.39-1.74-.95-2.45-1.65-.7-.7-1.26-1.53-1.65-2.45-.4-.95-.61-1.97-.61-3.02s.21-2.07,.61-3.02c.39-.92,.95-1.74,1.65-2.45,.7-.7,1.53-1.26,2.45-1.65,.95-.4,1.97-.61,3.02-.61Z"/><path class="d" d="M20,15.62c-2.42,0-4.38,1.97-4.38,4.38s1.97,4.38,4.38,4.38,4.38-1.97,4.38-4.38-1.97-4.38-4.38-4.38Zm0-.89c.73,0,1.42,.15,2.07,.42,.62,.27,1.18,.65,1.66,1.13,.48,.48,.86,1.04,1.13,1.66,.28,.65,.42,1.34,.42,2.07s-.15,1.42-.42,2.07c-.27,.62-.65,1.18-1.13,1.66-.48,.48-1.04,.86-1.66,1.13-.65,.28-1.34,.42-2.07,.42s-1.42-.15-2.07-.42c-.62-.27-1.18-.65-1.66-1.13-.48-.48-.86-1.04-1.13-1.66-.28-.65-.42-1.34-.42-2.07s.15-1.42,.42-2.07c.27-.62,.65-1.18,1.13-1.66,.48-.48,1.04-.86,1.66-1.13,.65-.28,1.34-.42,2.07-.42Z"/><path class="d" d="M20,18.07c-1.06,0-1.93,.87-1.93,1.93s.87,1.93,1.93,1.93,1.93-.87,1.93-1.93-.87-1.93-1.93-1.93Zm0,4.76c-1.56,0-2.83-1.27-2.83-2.83s1.27-2.83,2.83-2.83,2.83,1.27,2.83,2.83-1.27,2.83-2.83,2.83Z"/></g></g></g></svg>