<?xml version="1.0" encoding="UTF-8"?><svg xmlns="http://www.w3.org/2000/svg" viewBox="0 0 36.98 35.83"><defs><style>.d{fill:#fff;}</style></defs><g id="a"/><g id="b"><g id="c"><path class="d" d="M36.98,2.94v.04h0v.23l-.03,.09,.03,.02V35.83H0V9.5H.05v-.07h-.05V3.72s.02-.07,.04-.09c.13-.18,.25-.37,.38-.55,.23-.3,.48-.53,.87-.5,.09,0,.19,0,.26-.05,.16-.11,.34-.11,.52-.15,.19-.05,.33-.03,.44,.15,.13-.19,.09-.27-.23-.46,.17,.03,.27,.06,.38,.06,.04,0,.11-.04,.12-.07,.01-.04-.02-.13-.05-.14-.11-.04-.26-.12-.35-.07-.28,.12-.51,0-.74-.13-.2-.11-.38-.15-.58,.01-.08,.07-.19,.07-.29,.11l-.03-.05s.05-.07,.07-.11c.02-.03,.03-.07,.04-.13-.06-.02-.11-.03-.22-.06,.22-.08,.38-.15,.54-.21-.05-.2-.19-.02-.27-.09,.13-.1,.22-.1,.35,.03,.21,.23,.46,.35,.74,.42,.05,.01,.1,0,.16,0-.02-.06-.03-.09-.04-.13,.02,0,.04-.02,.05-.01,.11,.06,.21,.09,.34,.07,.08-.01,.18,.04,.25,.1,.22,.16,.46,.21,.71,.25-.1,.1-.31,.09-.24,.34,.59,.36,.59,.36,.78,.25-.1-.11-.2-.22-.3-.33,.1-.01,.19-.03,.29-.04v-.07c-.06-.02-.13-.04-.18-.07-.07-.04-.13-.09-.19-.13,.17,0,.34-.05,.47,.13,.03,.04,.12,.04,.17,.06,.07,.03,.18,0,.17,.17,0,.07,.29,.16,.38,.13,.09-.03,.17-.06,.28-.11-.07-.16-.12-.32-.2-.47-.17-.35-.15-.69-.04-1.03,.19-.11,.37-.22,.56-.32,.17-.1,.2-.09,.35,.05-.17,.1-.33,.2-.52,.31,.1,.1,.17,.15,.28,.13,.1-.02,.2,0,.29-.02,.19-.04,.35,0,.45,.18,.16-.03,.3-.06,.42-.09,.01-.02,.02-.03,.02-.03,0-.42,.04-.48,.44-.6,.15-.05,.25-.14,.34-.33,.09,.01,.19,.03,.28,.04,.09,0,.17,0,.29-.01,.11,.16,.32,.14,.5,.19-.02,.04-.04,.09-.07,.16h.27c.02-.12,.05-.23,.06-.32,.12,.03,.24,.07,.36,.09,.25,.04,.51,.01,.74,.1,.27,.1,.54,.1,.81,.12,.1,0,.2,0,.29-.01,.11-.02,.21-.05,.31,.04,.03,.02,.07,.04,.1,.02,.22-.1,.45,.03,.67,0,.23-.03,.46-.09,.69-.11,.16-.02,.32-.07,.47,.03-.08,.06-.15,.13-.24,.16-.1,.03-.21,0-.33,.06,.06,.04,.11,.11,.17,.12,.41,.02,.82,.02,1.23,.04,.31,.02,.62,.06,.94,.09,.12,0,.24,0,.36,.03-.82,.08-1.64,.06-2.46-.02-.02,.06-.02,.12-.05,.16-.03,.04-.09,.06-.18,.12,.14,.07,.2,.11,.27,.13,.33,.09,.65,.18,1,.14,.31-.03,.63-.03,.94,.06,.12,.03,.25-.02,.41-.03-.14-.12-.28-.09-.42-.1-.13-.01-.26-.03-.39-.04,.02-.26,.03-.29,.19-.24,.33,.1,.66,.07,1,.08,.21,0,.42,.05,.67,.09-.09,.05-.12,.07-.19,.11,.09,.02,.16,.03,.23,.04l-.09,.14c.26-.06,.49,.1,.72-.01,.01,0,.04,.02,.06,.03,.04,.03,.08,.08,.12,.08,.37,0,.74,0,1.11,0,.07,0,.14,.01,.21,.03,.3,.06,.6,.14,.92,.07,.3-.07,.63,.01,.94-.01,.23-.02,.46,.09,.68-.03,.31,.11,.64-.09,.96,.06,.19,.09,.41,.08,.63-.03l-.13-.07v-.04c.55-.02,1.09-.04,1.63-.07v.03c-.07,.02-.16,.05-.29,.09,.11,.07,.17,.14,.24,.15,.09,.01,.17,0,.25,.08,.02,.03,.14-.02,.19-.07,.17-.17,.38-.23,.59-.32,.46-.2,.93-.24,1.41-.2,.49,.04,.98,.12,1.48,.19,.06,0,.11,.05,.23,.11-.16,.04-.26,.06-.36,.08-.36,.05-.72,.12-1.1,.06-.21-.03-.43-.02-.62,.13-.05,.04-.12,.04-.24,.07,.33,.03,.59,.04,.86,.07,.28,.03,.56,.05,.83,.1,.33,.07,.66,.06,1,.05,.5-.02,1,.05,1.51,0,.39-.03,.8-.03,1.17,.08,.49,.14,.97,.18,1.47,.22,.32,.02,.64,.09,.96,.13,.08,.01,.16,.02,.24,0,.25-.04,.47,.06,.7,.11,.05,.01,.13,.06,.15,.03,.18-.17,.37-.03,.56-.03,.19,0,.37,.04,.56,.04,.18,0,.35-.03,.53-.02,.16,0,.33,0,.49,.01v.26Z"/></g></g></svg>