<?xml version="1.0" encoding="UTF-8"?><svg xmlns="http://www.w3.org/2000/svg" viewBox="0 0 84.72 38.55"><defs><style>.d{fill:#fff;}.e{fill:#ec0000;}</style></defs><g id="a"/><g id="b"><g id="c"><path class="d" d="M.91,.77H3.29V6.49h1.35l-.23,1.93h-1.07v.72H7.61l-.25,2.51H0l.36-2.48H.86v-.72H.08l.21-1.95H.89V.77Z"/><path class="d" d="M12.73,0l1.97,.75-.23,.76h3.17l-.33,2.37h-1.73l2.75,7.36-2.12,.73-2.82-7.52-3.14,7.45-2.15-.65,3.1-7.4h-2.26l.17-2.35h2.99l.63-1.51Zm1.01,8.16l1.23,1.35-2.27,2.27-1.23-1.32,2.27-2.29Z"/><path class="d" d="M.54,14.45h7.71l-.64,2.41H3.72v1.21H7.98l-.38,2.17H3.66c-.08,1.15,0,1.91,.21,2.27,.22,.37,.59,.56,1.11,.57h2.93l-.39,2.27c-2.35,.05-3.72-.03-4.09-.23-.38-.2-.77-.53-1.18-.99-.41-.47-.66-1.15-.77-2.04v-1.87H.16l.33-2.19H1.57v-1.24H.16l.38-2.36Z"/><path class="d" d="M10.67,14.16l3.47,4.69c.94-1.35,1.68-2.84,2.23-4.48l2.23,.91c-.71,1.85-1.75,3.64-3.1,5.37l2.91,3.89-2.02,1.61-2.53-3.47c-.51,.6-1.02,1.12-1.55,1.57s-1.24,.92-2.13,1.41l-1.65-1.75c1.83-1.2,3.18-2.25,4.05-3.16l-3.83-5.11,1.92-1.51Z"/><path class="d" d="M19.57,14.45h7.61c.77,.35,1.12,1.04,1.05,2.07v7.33c-.07,.93-.51,1.43-1.33,1.48h-2.49l3.3,.72-.47,2.15-4.44-.8,.42-2.07h-3.11c-.55-.07-.91-.68-1.09-1.83v-6.12l.97-.55h-.98l.55-2.39Zm1.83,2.36v7.16l.55-1h3.92v-6.16h-4.47Z"/><path class="d" d="M31.69,14.33c-.31,2.81-.35,4.69-.13,5.64,.22,.96,.57,1.72,1.06,2.27,.49,.56,1.59,.69,3.29,.4V14.45l2.31,.13v10.48l-2.32,.23v-1.32l-.41,1.45-.51,.11c-1.5,.03-2.63-.17-3.39-.63s-1.4-1.36-1.89-2.73c-.49-1.36-.7-3.35-.61-5.93l.13-1.48,2.46-.43Z"/><path class="d" d="M39.33,14.47h4.36l-.32,2.31h-.71v6.36h.9l-.13,2.23h-4.36l.21-2.24h.93l.02-5.79,1.01-.56h-2.15l.23-2.31Z"/><path class="d" d="M45,14.45h5.93c.65,.15,1.07,.51,1.25,1.07,.19,.56,.29,1.05,.29,1.48l-2.1,.41c0-.51-.47-.72-1.41-.64h-1.65l5.03,4.92c.37,.48,.42,1.29,.14,2.43-.27,.73-.96,1.13-2.05,1.24h-4.04c-.47-.17-.84-.47-1.11-.91s-.48-.99-.63-1.64l2.19-.73c.06,.6,.31,.89,.73,.88h2.14c.33-.07,.27-.31-.16-.71l-4.68-4.57,1.15-.91h-1.47l.45-2.32Z"/><path class="d" d="M53.81,14.47h4.36l-.32,2.31h-.71v6.36h.9l-.13,2.23h-4.36l.21-2.24h.93l.02-5.79,1.01-.56h-2.15l.23-2.31Z"/><path class="d" d="M59.28,14.47h7.27l-.3,2.4h-2.58v5.19c-.09,.81,.18,1.29,.81,1.44l-.59,2.25c-.73,.03-1.35-.21-1.85-.71-.51-.51-.77-1.16-.78-1.97v-5.72l1.03-.49h-3.25l.24-2.39Z"/><path class="d" d="M67.68,14.45h7.71l-.64,2.41h-3.89v1.21h4.26l-.38,2.17h-3.94c-.08,1.15,0,1.91,.21,2.27,.22,.37,.59,.56,1.11,.57h2.93l-.39,2.27c-2.35,.05-3.72-.03-4.09-.23-.38-.2-.77-.53-1.18-.99-.41-.47-.66-1.15-.77-2.04v-1.87h-1.32l.33-2.19h1.08v-1.24h-1.41l.38-2.36Z"/><path class="d" d="M76.84,14.48h7.36l-.27,2.36c-1.5,.83-2.73,1.85-3.69,3.05s-1.48,2.24-1.57,3.11h3.26c.43-.15,.76-.47,1-.96l1.78,1.17c-.45,.97-.91,1.59-1.39,1.84-.48,.27-1.09,.36-1.81,.29h-3.92c-.42,.04-.75-.07-1.01-.31-.25-.25-.41-.6-.46-1.05-.05-.44-.03-.92,.05-1.41,.09-.49,.53-1.33,1.31-2.52,.79-1.17,1.76-2.27,2.91-3.24h-4.37l.81-2.33Z"/><rect class="d" x="0" y="31.77" width="43.05" height="6.78" rx="3.39" ry="3.39"/><rect class="e" x="1.28" y="33.4" width="3.51" height="3.51" rx="1.76" ry="1.76"/><g><path class="e" d="M6.95,33.95v1.02h1.11v.33h-1.11v1.05h1.24v.33h-1.64v-3.05h1.64v.33h-1.24Z"/><path class="e" d="M10.66,34.5c.18,.17,.27,.43,.27,.76v1.41h-.39v-1.35c0-.24-.06-.42-.18-.55-.12-.13-.28-.19-.49-.19s-.38,.07-.5,.2c-.12,.13-.18,.32-.18,.57v1.32h-.4v-2.39h.4v.34c.08-.12,.18-.22,.32-.28,.13-.07,.28-.1,.45-.1,.29,0,.53,.09,.71,.27Z"/><path class="e" d="M14.87,34.28v2.39h-.4v-.35c-.08,.12-.18,.22-.32,.29s-.28,.1-.45,.1c-.19,0-.35-.04-.5-.12-.15-.07-.26-.19-.35-.34-.09-.16-.13-.34-.13-.56v-1.4h.39v1.35c0,.24,.06,.42,.18,.54,.12,.13,.28,.19,.49,.19s.38-.07,.5-.2c.12-.13,.18-.32,.18-.57v-1.31h.4Z"/><path class="e" d="M17.41,34.5c.18,.17,.27,.43,.27,.76v1.41h-.39v-1.35c0-.24-.06-.42-.18-.55-.12-.13-.28-.19-.49-.19s-.38,.07-.5,.2c-.12,.13-.18,.32-.18,.57v1.32h-.4v-2.39h.4v.34c.08-.12,.18-.22,.32-.28,.13-.07,.28-.1,.45-.1,.29,0,.53,.09,.71,.27Z"/><path class="e" d="M19.85,36.61c-.15-.06-.26-.15-.34-.26-.08-.11-.13-.24-.14-.39h.41c.01,.12,.07,.22,.17,.29,.1,.08,.23,.11,.4,.11,.15,0,.27-.03,.36-.1s.13-.15,.13-.25-.05-.18-.14-.23c-.09-.05-.24-.1-.43-.15-.18-.05-.32-.1-.43-.14-.11-.05-.21-.12-.29-.21-.08-.1-.12-.22-.12-.37,0-.12,.04-.23,.11-.34s.18-.18,.31-.24c.13-.06,.29-.09,.46-.09,.26,0,.48,.06,.64,.2s.25,.32,.26,.55h-.4c0-.12-.06-.23-.15-.3-.09-.07-.21-.11-.37-.11-.14,0-.26,.03-.34,.09-.08,.06-.13,.14-.13,.24,0,.08,.03,.14,.08,.19,.05,.05,.12,.09,.19,.12,.08,.03,.18,.06,.32,.1,.17,.05,.31,.09,.42,.13,.11,.05,.2,.11,.28,.2,.08,.09,.12,.21,.12,.35,0,.13-.04,.25-.11,.35-.07,.11-.18,.19-.31,.25-.13,.06-.28,.09-.46,.09-.18,0-.35-.03-.49-.09Z"/><path class="e" d="M22.2,36.55c-.18-.1-.32-.24-.43-.43s-.15-.4-.15-.65,.05-.46,.16-.65c.11-.19,.25-.33,.43-.43s.39-.15,.61-.15,.43,.05,.62,.15,.33,.24,.43,.43c.11,.18,.16,.4,.16,.65s-.06,.46-.16,.65-.26,.33-.44,.43c-.19,.1-.39,.15-.62,.15s-.43-.05-.61-.15Zm1.01-.3c.12-.06,.23-.17,.3-.3,.08-.13,.12-.3,.12-.49s-.04-.35-.11-.49c-.08-.13-.18-.23-.3-.3-.12-.06-.26-.1-.4-.1s-.28,.03-.4,.1c-.12,.07-.22,.17-.29,.3-.07,.13-.11,.3-.11,.49s.04,.36,.11,.49c.07,.13,.17,.23,.29,.3,.12,.07,.25,.1,.39,.1s.28-.04,.4-.1Z"/><path class="e" d="M24.96,33.44v3.23h-.4v-3.23h.4Z"/><path class="e" d="M26.07,36.55c-.18-.1-.32-.24-.43-.43s-.15-.4-.15-.65,.05-.46,.16-.65c.11-.19,.25-.33,.43-.43s.39-.15,.61-.15,.43,.05,.62,.15,.33,.24,.43,.43c.11,.18,.16,.4,.16,.65s-.06,.46-.16,.65-.26,.33-.44,.43c-.19,.1-.39,.15-.62,.15s-.43-.05-.61-.15Zm1.01-.3c.12-.06,.23-.17,.3-.3,.08-.13,.12-.3,.12-.49s-.04-.35-.11-.49c-.08-.13-.18-.23-.3-.3-.12-.06-.26-.1-.4-.1s-.28,.03-.4,.1c-.12,.07-.22,.17-.29,.3-.07,.13-.11,.3-.11,.49s.04,.36,.11,.49c.07,.13,.17,.23,.29,.3,.12,.07,.25,.1,.39,.1s.28-.04,.4-.1Z"/><path class="e" d="M29.99,33.44v3.23h-.4v-3.23h.4Z"/><path class="e" d="M32.79,34.28v2.39h-.4v-.35c-.08,.12-.18,.22-.32,.29s-.28,.1-.45,.1c-.19,0-.35-.04-.5-.12-.15-.07-.26-.19-.35-.34-.09-.16-.13-.34-.13-.56v-1.4h.39v1.35c0,.24,.06,.42,.18,.54,.12,.13,.28,.19,.49,.19s.38-.07,.5-.2c.12-.13,.18-.32,.18-.57v-1.31h.4Z"/><path class="e" d="M34.99,34.37c.15,.09,.27,.2,.35,.34v-.43h.4v2.44c0,.22-.05,.41-.14,.58-.09,.17-.23,.3-.4,.4-.17,.1-.37,.15-.61,.15-.31,0-.58-.07-.78-.22s-.33-.35-.37-.61h.39c.04,.15,.13,.26,.27,.35,.13,.09,.3,.13,.49,.13,.22,0,.4-.07,.53-.21,.14-.14,.21-.33,.21-.58v-.5c-.08,.14-.2,.26-.35,.35-.15,.09-.33,.14-.54,.14s-.41-.05-.58-.16c-.17-.11-.31-.25-.41-.44-.1-.19-.15-.4-.15-.65s.05-.46,.15-.64c.1-.18,.24-.33,.41-.43,.17-.1,.37-.15,.58-.15s.39,.04,.54,.13Zm.24,.62c-.07-.13-.17-.23-.29-.31-.12-.07-.26-.11-.41-.11s-.28,.03-.41,.1c-.12,.07-.22,.17-.29,.31s-.11,.29-.11,.47,.04,.34,.11,.48,.17,.24,.29,.31c.12,.07,.26,.11,.41,.11s.28-.04,.41-.11c.12-.07,.22-.18,.29-.31,.07-.13,.11-.29,.11-.47s-.04-.34-.11-.47Z"/><path class="e" d="M36.4,34.82c.1-.18,.24-.33,.41-.43,.17-.1,.37-.15,.58-.15s.39,.04,.54,.13c.15,.09,.27,.2,.34,.34v-.43h.4v2.39h-.4v-.44c-.08,.14-.2,.26-.35,.34-.16,.09-.34,.14-.54,.14s-.4-.05-.58-.16c-.17-.11-.31-.25-.41-.44-.1-.19-.15-.4-.15-.65s.05-.46,.15-.64Zm1.77,.17c-.07-.13-.17-.23-.29-.31-.12-.07-.26-.11-.41-.11s-.28,.03-.41,.1c-.12,.07-.22,.17-.29,.31s-.11,.29-.11,.47,.04,.34,.11,.48,.17,.24,.29,.31c.12,.07,.26,.11,.41,.11s.28-.04,.41-.11c.12-.07,.22-.18,.29-.31,.07-.13,.11-.29,.11-.47s-.04-.34-.11-.47Z"/><path class="e" d="M40.05,34.34c.13-.07,.29-.11,.47-.11v.41h-.1c-.45,0-.67,.24-.67,.72v1.3h-.4v-2.39h.4v.39c.07-.14,.17-.24,.3-.32Z"/></g></g></g></svg>