<?xml version="1.0" encoding="utf-8"?>
<!-- Generator: Adobe Illustrator 26.2.1, SVG Export Plug-In . SVG Version: 6.00 Build 0)  -->
<svg version="1.1" id="Capa_1" xmlns="http://www.w3.org/2000/svg" xmlns:xlink="http://www.w3.org/1999/xlink" x="0px" y="0px"
	 viewBox="0 0 75.3 54" style="enable-background:new 0 0 75.3 54;" xml:space="preserve">
<style type="text/css">
	.st0{fill:#141414;}
	.st1{fill:#EC0000;}
	.st2{fill:#FFFFFF;}
</style>
<g id="a">
</g>
<path class="st0" d="M26,44.9h45.1c2.3,0,4.2,1.9,4.2,4.2v0.7c0,2.3-1.9,4.2-4.2,4.2H26c-2.3,0-4.2-1.9-4.2-4.2v-0.7
	C21.8,46.8,23.7,44.9,26,44.9z"/>
<path class="st1" d="M4.2,44.9h31.2c2.3,0,4.2,1.9,4.2,4.2v0.7c0,2.3-1.9,4.2-4.2,4.2H4.2C1.9,54,0,52.2,0,49.8v-0.7
	C0,46.8,1.9,44.9,4.2,44.9z"/>
<g>
	<path class="st2" d="M3.3,48.7L3.3,48.7c0,0,0-0.1,0-0.1c0,0,0,0,0,0c0,0,0,0,0,0c0,0,0,0,0-0.1c0,0,0-0.1,0-0.1c0,0,0-0.1,0-0.2
		c0-0.1,0.1-0.2,0.1-0.2c0,0,0-0.1,0.1-0.1c0.1-0.1,0.1-0.1,0.2-0.1c0.1,0,0.2,0,0.3-0.1c0,0,0,0,0.1,0s0,0,0.1,0h0.1c0,0,0,0,0.1,0
		s0,0,0,0c0.1,0,0.1,0,0.2,0.1c0.1,0.1,0.1,0.2,0.1,0.2c0,0.1,0.1,0.3,0.1,0.4c0,0.1,0,0.2,0,0.2c0,0,0,0,0,0.1c0,0,0,0,0,0
		c0,0.1-0.1,0.1-0.1,0.2c-0.1,0-0.1,0-0.2,0.1c0,0-0.1,0-0.1,0.1c0,0,0,0,0,0s0,0,0,0c0,0.1,0,0.1,0,0.2c0,0.1,0.1,0.2,0.1,0.2
		c0.1,0.1,0.2,0.2,0.2,0.4c0.1,0.1,0.1,0.1,0.2,0.2l0,0c0,0,0,0,0,0c0,0,0.1,0.1,0.1,0.1c0,0,0,0,0.1,0c0.1,0.1,0.1,0.1,0.2,0.2
		c0.1,0,0.1,0.1,0.2,0.1c0,0,0.1,0,0.1,0.1c0,0,0.1,0,0.1,0c0,0,0.1-0.1,0.1-0.1c0.1-0.1,0.1-0.2,0.2-0.2c0,0,0.1,0,0.1,0
		c0.1,0,0.2,0,0.2,0.1c0.1,0,0.2,0.1,0.3,0.1c0.1,0,0.2,0.1,0.3,0.1c0.1,0,0.1,0,0.2,0.1c0,0,0.1,0.1,0.1,0.1l0,0c0,0,0,0.1,0,0.1
		S7,51,7,51c0,0.1-0.1,0.2-0.1,0.2s-0.1,0.1-0.2,0.2c-0.1,0.1-0.1,0.1-0.2,0.2c-0.1,0-0.1,0-0.2,0.1c-0.1,0-0.1,0-0.2,0h0
		c0,0,0,0-0.1,0c0,0,0,0,0,0H6c0,0,0,0-0.1,0c0,0-0.1,0-0.1,0c0,0-0.1,0-0.1,0c0,0-0.1,0-0.1,0s-0.1,0-0.1,0c-0.1,0-0.1,0-0.2-0.1
		s-0.1-0.1-0.2-0.1c-0.1,0-0.1-0.1-0.2-0.1c-0.1,0-0.1-0.1-0.2-0.1c-0.1,0-0.1-0.1-0.2-0.1c0,0-0.1-0.1-0.1-0.1l0,0
		c-0.1-0.1-0.1-0.1-0.2-0.2c-0.1-0.1-0.1-0.2-0.2-0.2c-0.1-0.1-0.2-0.2-0.2-0.3c-0.1-0.1-0.1-0.2-0.2-0.2c0-0.1-0.1-0.1-0.1-0.2
		c0,0-0.1-0.1-0.1-0.2s-0.1-0.1-0.1-0.2c0-0.1-0.1-0.2-0.1-0.2c0-0.1,0-0.1,0-0.2c0,0,0-0.1,0-0.1S3.3,48.8,3.3,48.7
		C3.3,48.8,3.3,48.8,3.3,48.7L3.3,48.7L3.3,48.7z"/>
	<path class="st2" d="M5.7,47.2C5.7,47.2,5.8,47.2,5.7,47.2c0.2,0,0.4,0.1,0.5,0.2c0.1,0.1,0.3,0.1,0.4,0.2c0.1,0.1,0.2,0.1,0.2,0.2
		c0.1,0,0.1,0.1,0.2,0.2C7,48,7.1,48.1,7.2,48.2c0.1,0.1,0.1,0.2,0.2,0.3c0.1,0.2,0.1,0.3,0.2,0.5c0,0.1,0,0.2,0.1,0.3
		c0,0,0,0.1,0,0.1c0,0,0,0,0,0c0,0,0,0,0,0c0,0,0,0,0,0v0.1c0,0,0,0,0,0c0,0,0,0.1-0.1,0.1c-0.1,0-0.1,0-0.2,0c0,0,0,0,0,0
		c0,0,0,0,0,0c0,0,0,0,0-0.1c0,0,0,0,0,0c0,0,0,0,0,0c0,0,0,0,0,0s0,0,0,0c0,0,0-0.1,0-0.1c0,0,0-0.1,0-0.1c0,0,0-0.1,0-0.1
		c0,0,0-0.1,0-0.1c0,0,0-0.1,0-0.1c0,0,0-0.1-0.1-0.1c0,0,0-0.1,0-0.1c0,0,0-0.1-0.1-0.1C7.1,48.4,7,48.3,7,48.2
		c0-0.1-0.1-0.1-0.1-0.2c-0.1-0.1-0.1-0.1-0.2-0.2c-0.1,0-0.1-0.1-0.2-0.1c-0.2-0.1-0.5-0.2-0.7-0.3c0,0,0,0,0,0c0,0-0.1,0-0.1-0.1
		C5.6,47.3,5.6,47.2,5.7,47.2L5.7,47.2C5.7,47.2,5.7,47.2,5.7,47.2L5.7,47.2L5.7,47.2z"/>
	<path class="st2" d="M7,49.4L7,49.4C7,49.4,7,49.5,7,49.4c0,0.1,0,0.1,0,0.1c0,0,0,0-0.1,0c0,0,0,0,0,0c-0.1,0-0.1,0-0.1-0.1
		c0,0,0,0,0-0.1c0,0,0,0,0,0c0,0,0,0,0-0.1s0,0,0-0.1s0,0,0-0.1c0,0,0-0.1,0-0.1c0,0,0-0.1-0.1-0.2c0,0,0-0.1-0.1-0.2
		c-0.1-0.1-0.1-0.2-0.2-0.3c-0.1-0.1-0.1-0.1-0.2-0.2c-0.1,0-0.1-0.1-0.2-0.2c-0.1,0-0.1,0-0.2-0.1c-0.1,0-0.2,0-0.2-0.1
		c0,0,0,0-0.1,0c0,0-0.1,0-0.1-0.1c0-0.1,0.1-0.1,0.1-0.1c0.2,0.1,0.5,0.2,0.7,0.3c0.1,0,0.1,0.1,0.2,0.2c0.1,0.1,0.2,0.2,0.2,0.3
		c0.1,0.1,0.1,0.3,0.2,0.4c0,0.1,0,0.1,0,0.2C7,49.3,7,49.3,7,49.4C7,49.4,7,49.4,7,49.4L7,49.4L7,49.4z"/>
	<path class="st2" d="M6.4,49.4C6.4,49.4,6.4,49.5,6.4,49.4c-0.1,0.1-0.1,0.1-0.1,0.1c-0.1,0-0.1,0-0.1-0.1c0,0,0,0,0,0
		c0,0,0-0.1,0-0.1c0-0.1,0-0.1-0.1-0.2c0-0.1-0.1-0.2-0.1-0.2c-0.1-0.1-0.1-0.1-0.2-0.2s-0.1-0.1-0.2-0.1c0,0-0.1,0-0.1,0
		c0,0-0.1,0-0.1-0.1c0-0.1,0-0.1,0.1-0.1c0,0,0,0,0,0c0.1,0,0.1,0,0.1,0c0.1,0,0.2,0.1,0.3,0.2c0.1,0.1,0.2,0.2,0.2,0.3
		c0,0.1,0.1,0.2,0.1,0.3c0,0,0,0.1,0,0.1C6.4,49.3,6.4,49.4,6.4,49.4L6.4,49.4L6.4,49.4z"/>
	<path class="st2" d="M7.6,49.6v-0.2l0,0V49.6L7.6,49.6L7.6,49.6z"/>
	<path class="st2" d="M3.3,48.6v0.1l0,0V48.6L3.3,48.6L3.3,48.6z"/>
	<path class="st2" d="M6.8,49.4c0,0,0,0.1,0,0.1C6.8,49.5,6.8,49.5,6.8,49.4L6.8,49.4z"/>
	<path class="st2" d="M6.4,49.4L6.4,49.4C6.4,49.3,6.4,49.3,6.4,49.4C6.4,49.4,6.4,49.4,6.4,49.4L6.4,49.4z"/>
	<path class="st2" d="M7.1,50.8L7.1,50.8C7.1,50.8,7.1,50.8,7.1,50.8z"/>
	<path class="st2" d="M7,49.5L7,49.5C7,49.4,7,49.5,7,49.5z"/>
	<path class="st2" d="M6.1,51.7C6.1,51.7,6.2,51.7,6.1,51.7C6.2,51.7,6.2,51.7,6.1,51.7z"/>
	<path class="st2" d="M7.4,49.5C7.4,49.5,7.4,49.5,7.4,49.5L7.4,49.5z"/>
	<path class="st2" d="M4.4,47.7C4.4,47.7,4.3,47.7,4.4,47.7C4.3,47.7,4.3,47.7,4.4,47.7z"/>
	<path class="st2" d="M4.8,48.8C4.8,48.8,4.8,48.7,4.8,48.8C4.8,48.7,4.8,48.8,4.8,48.8z"/>
	<path class="st2" d="M6,51.7C6,51.7,6.1,51.7,6,51.7C6.1,51.7,6,51.7,6,51.7z"/>
	<path class="st2" d="M7,49.4C7,49.4,7,49.4,7,49.4C7,49.4,7,49.4,7,49.4z"/>
	<path class="st2" d="M4.2,47.7C4.2,47.7,4.2,47.7,4.2,47.7C4.2,47.7,4.2,47.7,4.2,47.7z"/>
	<path class="st2" d="M7.4,49.4C7.4,49.4,7.4,49.4,7.4,49.4C7.4,49.4,7.4,49.4,7.4,49.4z"/>
	<path class="st2" d="M5.7,47.2L5.7,47.2C5.7,47.2,5.7,47.2,5.7,47.2z"/>
	<path class="st2" d="M5.6,48.4L5.6,48.4C5.6,48.4,5.6,48.4,5.6,48.4z"/>
	<path class="st2" d="M4.3,49.1C4.3,49.1,4.3,49.1,4.3,49.1L4.3,49.1z"/>
	<path class="st2" d="M7.6,49.4C7.6,49.4,7.6,49.4,7.6,49.4C7.6,49.4,7.6,49.4,7.6,49.4z"/>
	<path class="st2" d="M6.9,49.6C6.9,49.6,6.9,49.6,6.9,49.6C6.9,49.6,6.9,49.6,6.9,49.6z"/>
	<path class="st2" d="M4.6,50.9C4.6,50.9,4.6,50.9,4.6,50.9C4.7,50.9,4.6,50.9,4.6,50.9z"/>
	<path class="st2" d="M3.3,48.5C3.3,48.5,3.3,48.6,3.3,48.5C3.3,48.6,3.3,48.5,3.3,48.5z"/>
	<path class="st2" d="M3.3,48.7C3.3,48.7,3.3,48.7,3.3,48.7C3.3,48.8,3.3,48.7,3.3,48.7z"/>
	<path class="st2" d="M7.4,49.4C7.4,49.4,7.4,49.4,7.4,49.4C7.4,49.4,7.4,49.4,7.4,49.4z"/>
	<path class="st2" d="M6.3,49.5L6.3,49.5C6.3,49.5,6.3,49.5,6.3,49.5z"/>
	<path class="st2" d="M4.9,50.1L4.9,50.1C4.9,50.1,4.9,50.1,4.9,50.1z"/>
</g>
<path class="st2" d="M44.3,46.7c-0.5,0-1.1,0.3-1.4,0.9c-0.2,0.4-0.3,0.9-0.2,1.4c0.1,0.2,0.2,0.5,0.3,0.7c0.4,0.8,0.9,1.5,1.4,2.2
	c0,0,0,0,0.1,0c0.2-0.3,0.4-0.6,0.6-0.8c0.4-0.5,0.7-1.1,1-1.7c0.1-0.2,0.2-0.5,0.2-0.8C46.3,47.6,45.5,46.7,44.3,46.7z M44.5,49.4
	c-0.5,0-0.9-0.4-0.9-0.9c0-0.5,0.4-0.9,0.9-0.9c0.5,0,0.9,0.4,0.9,0.9C45.3,49.1,44.9,49.4,44.5,49.4L44.5,49.4z"/>
<path class="st2" d="M11.9,47.3c-0.1,0-0.3,0.1-0.3,0.2s-0.1,0.3-0.1,0.6c0-0.1,0.1-0.2,0.2-0.2c0.1,0,0.2-0.1,0.3-0.1
	c0.2,0,0.3,0.1,0.4,0.2c0.1,0.1,0.2,0.3,0.2,0.5c0,0.1,0,0.2-0.1,0.3c-0.1,0.1-0.1,0.2-0.2,0.2S12.1,49,12,49c-0.2,0-0.3,0-0.4-0.1
	s-0.2-0.2-0.2-0.3s-0.1-0.3-0.1-0.5c0-0.6,0.2-0.9,0.7-0.9c0.2,0,0.3,0,0.4,0.1c0.1,0.1,0.1,0.2,0.2,0.3h-0.2
	C12.3,47.4,12.1,47.3,11.9,47.3L11.9,47.3z M11.7,48c-0.1,0-0.1,0.1-0.2,0.1c0,0.1-0.1,0.1-0.1,0.2c0,0.1,0,0.2,0.1,0.3
	s0.2,0.1,0.3,0.1c0.1,0,0.2,0,0.3-0.1c0.1-0.1,0.1-0.2,0.1-0.3s0-0.2-0.1-0.3C12.2,48,12.1,48,11.9,48C11.9,48,11.8,48,11.7,48
	L11.7,48z"/>
<path class="st2" d="M14,47.3L13.3,49h-0.2l0.7-1.6h-1v-0.2H14L14,47.3L14,47.3z"/>
<path class="st2" d="M15.4,47.3L14.7,49h-0.2l0.7-1.6h-1v-0.2h1.2L15.4,47.3L15.4,47.3z"/>
<path class="st2" d="M16.9,47.3H16v0.6c0,0,0.1-0.1,0.2-0.1c0.1,0,0.2,0,0.2,0c0.1,0,0.3,0,0.4,0.1s0.1,0.1,0.2,0.2s0.1,0.2,0.1,0.3
	c0,0.1,0,0.2-0.1,0.3c0,0.1-0.1,0.2-0.2,0.2S16.5,49,16.3,49c-0.2,0-0.3,0-0.4-0.1c-0.1-0.1-0.2-0.2-0.2-0.4h0.2
	c0,0.1,0.1,0.2,0.1,0.2c0.1,0,0.2,0.1,0.3,0.1c0.1,0,0.2,0,0.3-0.1c0.1-0.1,0.1-0.2,0.1-0.3s0-0.2-0.1-0.3s-0.2-0.1-0.3-0.1
	c-0.1,0-0.2,0-0.2,0.1S16,48.1,16,48.2h-0.2v-1h1.1C16.9,47.1,16.9,47.3,16.9,47.3z"/>
<path class="st2" d="M17.2,48.6v-0.2l0.9-1.2h0.3v1.2h0.3v0.2h-0.3V49h-0.2v-0.4H17.2z M18.2,47.4l-0.7,1h0.7V47.4z"/>
<path class="st2" d="M19.4,48.4c0.1-0.1,0.2-0.2,0.3-0.3s0.1-0.2,0.1-0.4c0-0.1,0-0.2-0.1-0.3c0-0.1-0.1-0.1-0.3-0.1s-0.2,0-0.3,0.1
	c-0.1,0.1-0.1,0.2-0.1,0.3h-0.2c0-0.2,0.1-0.3,0.2-0.4s0.2-0.2,0.4-0.2s0.3,0,0.4,0.2c0.1,0.1,0.2,0.2,0.2,0.4c0,0.1,0,0.3-0.1,0.4
	s-0.2,0.2-0.3,0.3s-0.2,0.2-0.4,0.3h0.9v0.2h-1.2v-0.2C19.1,48.6,19.3,48.5,19.4,48.4L19.4,48.4z"/>
<path class="st2" d="M21,47.3c-0.1,0-0.3,0.1-0.3,0.2s-0.1,0.3-0.1,0.6c0-0.1,0.1-0.2,0.2-0.2c0.1,0,0.2-0.1,0.3-0.1
	c0.2,0,0.3,0.1,0.4,0.2c0.1,0.1,0.2,0.3,0.2,0.5c0,0.1,0,0.2-0.1,0.3s-0.1,0.2-0.2,0.2S21.2,49,21.1,49c-0.2,0-0.3,0-0.4-0.1
	s-0.2-0.2-0.2-0.3s-0.1-0.3-0.1-0.5c0-0.6,0.2-0.9,0.7-0.9c0.2,0,0.3,0,0.4,0.1c0.1,0.1,0.1,0.2,0.2,0.3h-0.2
	C21.4,47.4,21.2,47.3,21,47.3L21,47.3z M20.8,48c-0.1,0-0.1,0.1-0.2,0.1c0,0.1-0.1,0.1-0.1,0.2c0,0.1,0,0.2,0.1,0.3s0.2,0.1,0.3,0.1
	c0.1,0,0.2,0,0.3-0.1c0.1-0.1,0.1-0.2,0.1-0.3s0-0.2-0.1-0.3C21.3,48,21.2,48,21.1,48C21,48,20.9,48,20.8,48L20.8,48z"/>
<path class="st2" d="M22.9,46.6l-0.7,2.8H22l0.7-2.8H22.9z"/>
<path class="st2" d="M24.4,47.3h-0.9v0.6c0,0,0.1-0.1,0.2-0.1c0.1,0,0.2,0,0.2,0c0.1,0,0.3,0,0.4,0.1s0.1,0.1,0.2,0.2
	s0.1,0.2,0.1,0.3c0,0.1,0,0.2-0.1,0.3c0,0.1-0.1,0.2-0.2,0.2S24,49,23.9,49c-0.2,0-0.3,0-0.4-0.1s-0.2-0.2-0.2-0.4h0.2
	c0,0.1,0.1,0.2,0.1,0.2c0.1,0,0.2,0.1,0.3,0.1c0.1,0,0.2,0,0.3-0.1c0.1-0.1,0.1-0.2,0.1-0.3s0-0.2-0.1-0.3s-0.2-0.1-0.3-0.1
	c-0.1,0-0.2,0-0.2,0.1s-0.1,0.1-0.1,0.2h-0.2v-1h1.1C24.4,47.1,24.4,47.3,24.4,47.3z"/>
<path class="st2" d="M25.3,48.4c0.1-0.1,0.2-0.2,0.3-0.3s0.1-0.2,0.1-0.4c0-0.1,0-0.2-0.1-0.3c0-0.1-0.1-0.1-0.3-0.1s-0.2,0-0.3,0.1
	C25,47.5,25,47.6,25,47.7h-0.2c0-0.2,0.1-0.3,0.2-0.4s0.2-0.2,0.4-0.2s0.3,0,0.4,0.2c0.1,0.1,0.2,0.2,0.2,0.4c0,0.1,0,0.3-0.1,0.4
	s-0.2,0.2-0.3,0.3s-0.2,0.2-0.4,0.3H26v0.2h-1.2v-0.2C25,48.6,25.2,48.5,25.3,48.4L25.3,48.4z"/>
<path class="st2" d="M26.8,48.4c0.1-0.1,0.2-0.2,0.3-0.3s0.1-0.2,0.1-0.4c0-0.1,0-0.2-0.1-0.3c0-0.1-0.1-0.1-0.3-0.1s-0.2,0-0.3,0.1
	c-0.1,0.1-0.1,0.2-0.1,0.3h-0.2c0-0.2,0.1-0.3,0.2-0.4s0.2-0.2,0.4-0.2s0.3,0,0.4,0.2c0.1,0.1,0.2,0.2,0.2,0.4c0,0.1,0,0.3-0.1,0.4
	s-0.2,0.2-0.3,0.3s-0.2,0.2-0.4,0.3h0.9v0.2h-1.2v-0.2C26.5,48.6,26.6,48.5,26.8,48.4L26.8,48.4z"/>
<path class="st2" d="M28.2,48.4c0.1-0.1,0.2-0.2,0.3-0.3s0.1-0.2,0.1-0.4c0-0.1,0-0.2-0.1-0.3c0-0.1-0.1-0.1-0.3-0.1s-0.2,0-0.3,0.1
	c-0.1,0.1-0.1,0.2-0.1,0.3h-0.2c0-0.2,0.1-0.3,0.2-0.4s0.2-0.2,0.4-0.2s0.3,0,0.4,0.2c0.1,0.1,0.2,0.2,0.2,0.4c0,0.1,0,0.3-0.1,0.4
	s-0.2,0.2-0.3,0.3s-0.2,0.2-0.4,0.3h0.9v0.2h-1.2v-0.2C27.9,48.6,28.1,48.5,28.2,48.4L28.2,48.4z"/>
<path class="st2" d="M11.4,50.3c0.1-0.1,0.3-0.2,0.5-0.2c0.1,0,0.2,0,0.3,0.1s0.2,0.1,0.2,0.2s0.1,0.2,0.1,0.3c0,0.1,0,0.2-0.1,0.3
	c-0.1,0.1-0.1,0.1-0.2,0.2l0,0c0.1,0,0.2,0.1,0.2,0.2s0.1,0.2,0.1,0.3c0,0.1,0,0.2-0.1,0.3c-0.1,0.1-0.1,0.1-0.2,0.2
	s-0.2,0.1-0.3,0.1c-0.2,0-0.4,0-0.5-0.2s-0.2-0.2-0.2-0.5h0.4c0,0.1,0,0.1,0.1,0.2s0.1,0.1,0.2,0.1c0.1,0,0.1,0,0.1-0.1
	c0,0,0.1-0.1,0.1-0.2c0-0.1,0-0.1-0.1-0.2s-0.1-0.1-0.2-0.1h-0.1v-0.4h0.1c0.1,0,0.2,0,0.2,0c0.1,0,0.1-0.1,0.1-0.2
	c0-0.1,0-0.1-0.1-0.1s-0.1,0-0.1,0s-0.1,0-0.1,0.1c0,0-0.1,0.1-0.1,0.2h-0.4C11.2,50.5,11.3,50.4,11.4,50.3z"/>
<path class="st2" d="M12.7,50.6v-0.4h0.7V52H13v-1.5H12.7L12.7,50.6z"/>
<path class="st2" d="M13.7,51.7v-0.3l0.8-1.2H15v1.1h0.2v0.4H15V52h-0.4v-0.3C14.6,51.7,13.7,51.7,13.7,51.7z M14.6,50.7l-0.4,0.7
	h0.4V50.7z"/>
<path class="st2" d="M15.5,51.7v-0.3l0.8-1.2h0.5v1.1H17v0.4h-0.2V52h-0.4v-0.3C16.3,51.7,15.5,51.7,15.5,51.7z M16.4,50.7l-0.4,0.7
	h0.4V50.7z"/>
<path class="st2" d="M18.5,50.6h-0.8v0.3c0,0,0.1-0.1,0.1-0.1s0.1,0,0.2,0c0.1,0,0.2,0,0.3,0.1s0.1,0.1,0.2,0.2s0.1,0.2,0.1,0.3
	c0,0.2-0.1,0.4-0.2,0.5S18.2,52,18,52c-0.1,0-0.2,0-0.4-0.1c-0.1,0-0.2-0.1-0.2-0.2c0-0.1-0.1-0.2-0.1-0.3h0.4c0,0,0,0.1,0.1,0.1
	c0,0,0.1,0,0.2,0c0.1,0,0.1,0,0.2-0.1s0.1-0.1,0.1-0.2s0-0.2-0.1-0.2c0,0-0.1-0.1-0.2-0.1c-0.1,0-0.1,0-0.1,0c0,0-0.1,0.1-0.1,0.1
	h-0.4v-1.1h1.2L18.5,50.6L18.5,50.6z"/>
<path class="st2" d="M18.9,50.6c0-0.1,0-0.2,0.1-0.2c0-0.1,0.1-0.1,0.2-0.2c0.1,0,0.2-0.1,0.4-0.1s0.3,0,0.4,0.1s0.2,0.1,0.2,0.2
	c0,0.1,0.1,0.2,0.1,0.2s0,0.2-0.1,0.2S20,51,20,51c0.1,0,0.2,0.1,0.2,0.2c0,0.1,0.1,0.2,0.1,0.3c0,0.1,0,0.2-0.1,0.3S20,52,19.9,52
	s-0.2,0.1-0.4,0.1s-0.2,0-0.4-0.1S19,51.9,19,51.8s-0.1-0.2-0.1-0.3c0-0.1,0-0.2,0.1-0.3c0-0.1,0.1-0.1,0.2-0.2
	C19,51,18.9,50.8,18.9,50.6z M19.4,51.3c0,0-0.1,0.1-0.1,0.2c0,0.1,0,0.1,0.1,0.2s0.1,0.1,0.2,0.1s0.1,0,0.2-0.1s0.1-0.1,0.1-0.2
	s0-0.1-0.1-0.2c0,0-0.1-0.1-0.2-0.1S19.4,51.2,19.4,51.3L19.4,51.3z M19.7,50.5c0,0-0.1-0.1-0.2-0.1s-0.1,0-0.2,0.1
	c0,0-0.1,0.1-0.1,0.2s0,0.1,0.1,0.2c0,0,0.1,0.1,0.2,0.1s0.1,0,0.2-0.1c0,0,0.1-0.1,0.1-0.2S19.8,50.6,19.7,50.5z"/>
<path class="st2" d="M20.7,50.3c0.1-0.1,0.3-0.2,0.5-0.2c0.1,0,0.2,0,0.3,0.1s0.2,0.1,0.2,0.2s0.1,0.2,0.1,0.3c0,0.1,0,0.2-0.1,0.3
	c-0.1,0.1-0.1,0.1-0.2,0.2l0,0c0.1,0,0.2,0.1,0.2,0.2s0.1,0.2,0.1,0.3c0,0.1,0,0.2-0.1,0.3c0,0.1-0.1,0.1-0.2,0.2
	c-0.1,0-0.2,0.1-0.3,0.1c-0.2,0-0.4,0-0.5-0.2s-0.2-0.2-0.2-0.5h0.4c0,0.1,0,0.1,0.1,0.2c0,0,0.1,0.1,0.2,0.1c0.1,0,0.1,0,0.1-0.1
	c0,0,0.1-0.1,0.1-0.2c0-0.1,0-0.1-0.1-0.2s-0.1-0.1-0.2-0.1H21v-0.4H21c0.1,0,0.2,0,0.2,0c0,0,0.1-0.1,0.1-0.2c0-0.1,0-0.1,0-0.1
	c0,0-0.1,0-0.1,0s-0.1,0-0.1,0.1c0,0,0,0.1-0.1,0.2h-0.4C20.5,50.5,20.6,50.4,20.7,50.3z"/>
<path class="st2" d="M22.8,51.7c0.1,0,0.1,0,0.2-0.1c0-0.1,0.1-0.2,0.1-0.4c0,0-0.1,0.1-0.1,0.1s-0.1,0-0.2,0c-0.1,0-0.2,0-0.3-0.1
	c-0.1,0-0.1-0.1-0.2-0.2s-0.1-0.2-0.1-0.3s0-0.2,0.1-0.3s0.1-0.2,0.2-0.2c0.1,0,0.2-0.1,0.3-0.1c0.2,0,0.4,0.1,0.5,0.2
	s0.1,0.4,0.1,0.7c0,0.2,0,0.4-0.1,0.5c0,0.1-0.1,0.2-0.2,0.3C23,52,22.9,52,22.7,52c-0.1,0-0.2,0-0.3-0.1c-0.1,0-0.2-0.1-0.2-0.2
	s-0.1-0.2-0.1-0.3h0.4C22.5,51.6,22.6,51.7,22.8,51.7L22.8,51.7z M22.9,50.9c0,0,0.1-0.1,0.1-0.2s0-0.2-0.1-0.2c0,0-0.1-0.1-0.2-0.1
	s-0.1,0-0.2,0.1c0,0-0.1,0.1-0.1,0.2s0,0.1,0.1,0.2c0,0,0.1,0.1,0.2,0.1C22.8,51,22.8,51,22.9,50.9L22.9,50.9z"/>
<path class="st2" d="M24.3,51.7c0.1,0,0.1,0,0.2-0.1c0-0.1,0.1-0.2,0.1-0.4c0,0-0.1,0.1-0.1,0.1s-0.1,0-0.2,0c-0.1,0-0.2,0-0.3-0.1
	c-0.1,0-0.1-0.1-0.2-0.2s-0.1-0.2-0.1-0.3s0-0.2,0.1-0.3s0.1-0.2,0.2-0.2c0.1,0,0.2-0.1,0.3-0.1c0.2,0,0.4,0.1,0.5,0.2
	S25,50.7,25,51c0,0.2,0,0.4-0.1,0.5c0,0.1-0.1,0.2-0.2,0.3C24.6,52,24.5,52,24.3,52c-0.1,0-0.2,0-0.3-0.1c-0.1,0-0.2-0.1-0.2-0.2
	s-0.1-0.2-0.1-0.3h0.4C24.1,51.6,24.2,51.7,24.3,51.7L24.3,51.7z M24.5,50.9c0,0,0.1-0.1,0.1-0.2s0-0.2-0.1-0.2c0,0-0.1-0.1-0.2-0.1
	s-0.1,0-0.2,0.1c0,0-0.1,0.1-0.1,0.2s0,0.1,0.1,0.2c0,0,0.1,0.1,0.2,0.1C24.4,51,24.4,51,24.5,50.9L24.5,50.9z"/>
<path class="st2" d="M25.1,50.6v-0.4h0.7V52h-0.5v-1.5H25.1L25.1,50.6z"/>
<g>
	<path class="st2" d="M48.6,48.9c0.1-0.2,0.2-0.3,0.3-0.3c0.2-0.1,0.3-0.1,0.5-0.1c0.2,0,0.4,0.1,0.6,0.2c0.2,0.1,0.3,0.3,0.3,0.5
		h-0.5c0-0.1-0.1-0.1-0.2-0.2s-0.2-0.1-0.2-0.1c-0.2,0-0.3,0-0.3,0.2S49,49.3,49,49.4s0,0.3,0.1,0.4s0.2,0.2,0.3,0.2
		c0.1,0,0.2,0,0.2-0.1c0.1,0,0.1-0.1,0.2-0.2h0.5c0,0.2-0.2,0.4-0.3,0.5c-0.2,0.1-0.4,0.2-0.6,0.2c-0.2,0-0.3,0-0.5-0.1
		c-0.2-0.1-0.3-0.2-0.3-0.3c-0.1-0.2-0.1-0.3-0.1-0.5S48.5,49.1,48.6,48.9L48.6,48.9z"/>
	<path class="st2" d="M51.1,48.4v2h-0.5v-2H51.1z"/>
	<path class="st2" d="M51.5,50.3c0,0-0.1-0.1-0.1-0.2s0-0.1,0.1-0.2c0,0,0.1-0.1,0.2-0.1s0.2,0,0.2,0.1s0.1,0.1,0.1,0.2
		s0,0.1-0.1,0.2c0,0-0.1,0.1-0.2,0.1S51.5,50.4,51.5,50.3z"/>
	<path class="st2" d="M52.7,48.8v-0.4h0.8v2H53v-1.6L52.7,48.8L52.7,48.8z"/>
	<path class="st2" d="M55.2,48.8h-0.9v0.4c0,0,0.1-0.1,0.2-0.1c0.1,0,0.1,0,0.2,0c0.1,0,0.2,0,0.3,0.1s0.2,0.1,0.2,0.2
		c0,0.1,0.1,0.2,0.1,0.3c0,0.2-0.1,0.4-0.2,0.5s-0.3,0.2-0.5,0.2c-0.2,0-0.3,0-0.4-0.1c-0.1,0-0.2-0.1-0.2-0.2s-0.1-0.2-0.1-0.3h0.5
		c0,0.1,0,0.1,0.1,0.1s0.1,0.1,0.2,0.1c0.1,0,0.2,0,0.2-0.1s0.1-0.1,0.1-0.2s0-0.2-0.1-0.2c0,0-0.1-0.1-0.2-0.1c-0.1,0-0.1,0-0.2,0
		c0,0-0.1,0.1-0.1,0.1h-0.5v-1.2h1.3L55.2,48.8L55.2,48.8z"/>
	<path class="st2" d="M56.5,48.8c0,0-0.1,0-0.2,0c-0.1,0-0.2,0-0.2,0.1c0,0.1-0.1,0.2-0.1,0.4c0-0.1,0.1-0.1,0.2-0.2
		c0.1,0,0.2-0.1,0.2-0.1c0.2,0,0.3,0.1,0.4,0.2c0.1,0.1,0.2,0.3,0.2,0.5c0,0.1,0,0.2-0.1,0.3c0,0.1-0.1,0.2-0.2,0.2
		c-0.1,0.1-0.2,0.1-0.4,0.1c-0.3,0-0.5-0.1-0.6-0.3s-0.2-0.4-0.2-0.8s0.1-0.6,0.2-0.8s0.3-0.2,0.6-0.2c0.1,0,0.2,0,0.3,0.1
		c0.1,0,0.2,0.1,0.2,0.2c0,0.1,0.1,0.2,0.1,0.3h-0.4C56.5,48.9,56.5,48.8,56.5,48.8L56.5,48.8z M56.1,49.5c0,0-0.1,0.1-0.1,0.2
		s0,0.2,0.1,0.2s0.1,0.1,0.2,0.1c0.1,0,0.1,0,0.2-0.1s0.1-0.1,0.1-0.2s0-0.2-0.1-0.2s-0.1-0.1-0.2-0.1
		C56.2,49.5,56.2,49.5,56.1,49.5L56.1,49.5z"/>
	<path class="st2" d="M59.7,49.2l-0.1,0.4H60V50h-0.4l-0.1,0.4H59l0.1-0.4h-0.5l-0.1,0.4h-0.4l0.1-0.4h-0.4v-0.4h0.5l0.1-0.4H58
		v-0.4h0.5l0.1-0.4H59l-0.1,0.4h0.5l0.1-0.4h0.4l-0.1,0.4h0.3v0.4C60.2,49.2,59.7,49.2,59.7,49.2z M59.3,49.2h-0.5l-0.1,0.4h0.5
		L59.3,49.2z"/>
	<path class="st2" d="M60.4,48.9c0-0.1,0-0.2,0.1-0.3c0-0.1,0.1-0.2,0.2-0.2c0.1,0,0.2-0.1,0.4-0.1s0.3,0,0.4,0.1
		c0.1,0,0.2,0.1,0.2,0.2c0,0.1,0.1,0.2,0.1,0.3s0,0.2-0.1,0.3s-0.1,0.1-0.2,0.2c0.1,0,0.2,0.1,0.2,0.2c0,0.1,0.1,0.2,0.1,0.3
		c0,0.1,0,0.2-0.1,0.3c-0.1,0.1-0.2,0.2-0.3,0.2c-0.1,0-0.2,0.1-0.4,0.1s-0.3,0-0.4-0.1s-0.2-0.1-0.3-0.2c-0.1-0.1-0.1-0.2-0.1-0.3
		c0-0.1,0-0.2,0.1-0.3c0-0.1,0.1-0.2,0.2-0.2C60.5,49.2,60.4,49.1,60.4,48.9L60.4,48.9z M60.9,49.6c0,0-0.1,0.1-0.1,0.2
		c0,0.1,0,0.1,0.1,0.2c0,0,0.1,0.1,0.2,0.1s0.2,0,0.2-0.1s0.1-0.1,0.1-0.2s0-0.1-0.1-0.2c0,0-0.1-0.1-0.2-0.1S61,49.5,60.9,49.6z
		 M61.3,48.8c0,0-0.1-0.1-0.2-0.1s-0.1,0-0.2,0.1c0,0-0.1,0.1-0.1,0.2c0,0.1,0,0.1,0.1,0.2c0,0,0.1,0.1,0.2,0.1s0.1,0,0.2-0.1
		c0,0,0.1-0.1,0.1-0.2S61.4,48.8,61.3,48.8L61.3,48.8z"/>
	<path class="st2" d="M63.4,49.2v0.4h-1.2v-0.4H63.4z"/>
	<path class="st2" d="M63.8,49.9c0.2-0.2,0.3-0.3,0.4-0.4c0.1-0.1,0.2-0.2,0.3-0.3s0.1-0.2,0.1-0.3c0-0.1,0-0.1-0.1-0.2
		c0,0-0.1-0.1-0.2-0.1s-0.1,0-0.2,0.1c0,0-0.1,0.1-0.1,0.2h-0.5c0-0.2,0-0.3,0.1-0.4c0.1-0.1,0.2-0.2,0.3-0.2c0.1,0,0.2-0.1,0.3-0.1
		c0.2,0,0.4,0.1,0.5,0.2s0.2,0.3,0.2,0.4c0,0.2-0.1,0.4-0.2,0.5c-0.1,0.2-0.3,0.3-0.5,0.5h0.7v0.4h-1.4L63.8,49.9
		C63.8,50,63.8,50,63.8,49.9L63.8,49.9z"/>
	<path class="st2" d="M65.2,48.8v-0.4H66v2h-0.5v-1.6L65.2,48.8L65.2,48.8z"/>
</g>
<g>
	<path class="st2" d="M24.4,47.3h-0.9v0.6c0,0,0.1-0.1,0.2-0.1c0.1,0,0.2,0,0.2,0c0.1,0,0.3,0,0.4,0.1s0.1,0.1,0.2,0.2
		s0.1,0.2,0.1,0.3c0,0.1,0,0.2-0.1,0.3c0,0.1-0.1,0.2-0.2,0.2S24,49,23.8,49c-0.2,0-0.3,0-0.4-0.1s-0.2-0.2-0.2-0.4h0.2
		c0,0.1,0.1,0.2,0.1,0.2s0.2,0.1,0.3,0.1c0.1,0,0.2,0,0.3-0.1c0.1-0.1,0.1-0.2,0.1-0.3s0-0.2-0.1-0.3s-0.2-0.1-0.3-0.1
		c-0.1,0-0.2,0-0.2,0.1s-0.1,0.1-0.1,0.2h-0.2v-1.1h1.1C24.4,47.1,24.4,47.3,24.4,47.3z"/>
	<path class="st2" d="M25.3,48.3c0.1-0.1,0.2-0.2,0.3-0.3s0.1-0.2,0.1-0.4c0-0.1,0-0.2-0.1-0.3c0-0.1-0.1-0.1-0.3-0.1
		s-0.2,0-0.3,0.1C25,47.5,25,47.6,25,47.7h-0.2c0-0.2,0.1-0.3,0.2-0.5s0.2-0.2,0.4-0.2s0.3,0,0.4,0.2c0.1,0.1,0.2,0.2,0.2,0.4
		c0,0.1,0,0.3-0.1,0.4s-0.2,0.3-0.3,0.4c-0.1,0.1-0.2,0.2-0.4,0.4H26V49h-1.2v-0.2C25,48.6,25.1,48.5,25.3,48.3L25.3,48.3z"/>
	<path class="st2" d="M26.8,48.3c0.1-0.1,0.2-0.2,0.3-0.3s0.1-0.2,0.1-0.4c0-0.1,0-0.2-0.1-0.3c0-0.1-0.1-0.1-0.3-0.1
		s-0.2,0-0.3,0.1c-0.1,0.1-0.1,0.2-0.1,0.3h-0.2c0-0.2,0.1-0.3,0.2-0.5s0.2-0.2,0.4-0.2s0.3,0,0.4,0.2c0.1,0.1,0.2,0.2,0.2,0.4
		c0,0.1,0,0.3-0.1,0.4s-0.2,0.3-0.3,0.4c-0.1,0.1-0.2,0.2-0.4,0.4h0.9V49h-1.2v-0.2C26.5,48.6,26.6,48.5,26.8,48.3L26.8,48.3z"/>
	<path class="st2" d="M28.2,48.3c0.1-0.1,0.2-0.2,0.3-0.3s0.1-0.2,0.1-0.4c0-0.1,0-0.2-0.1-0.3c0-0.1-0.1-0.1-0.3-0.1
		s-0.2,0-0.3,0.1C28,47.5,28,47.6,28,47.7h-0.2c0-0.2,0.1-0.3,0.2-0.5s0.2-0.2,0.4-0.2s0.3,0,0.4,0.2c0.1,0.1,0.2,0.2,0.2,0.4
		c0,0.1,0,0.3-0.1,0.4s-0.2,0.3-0.3,0.4c-0.1,0.1-0.2,0.2-0.4,0.4H29V49h-1.2v-0.2C28,48.6,28.1,48.5,28.2,48.3L28.2,48.3z"/>
	<path class="st2" d="M29.2,47.3v-0.2h0.5V49h-0.2v-1.7L29.2,47.3L29.2,47.3z"/>
	<path class="st2" d="M30.6,48.3c0.1-0.1,0.2-0.2,0.3-0.3s0.1-0.2,0.1-0.4c0-0.1,0-0.2-0.1-0.3c0-0.1-0.1-0.1-0.3-0.1
		s-0.2,0-0.3,0.1c-0.1,0.1-0.1,0.2-0.1,0.3h-0.2c0-0.2,0.1-0.3,0.2-0.5s0.2-0.2,0.4-0.2s0.3,0,0.4,0.2c0.1,0.1,0.2,0.2,0.2,0.4
		c0,0.1,0,0.3-0.1,0.4s-0.2,0.3-0.3,0.4c-0.1,0.1-0.2,0.2-0.4,0.4h0.9V49h-1.2v-0.2C30.3,48.6,30.4,48.5,30.6,48.3L30.6,48.3z"/>
	<path class="st2" d="M32.3,47.3c-0.2,0-0.3,0.1-0.3,0.2s-0.1,0.3-0.1,0.6c0-0.1,0.1-0.2,0.2-0.2s0.2-0.1,0.3-0.1
		c0.2,0,0.3,0.1,0.4,0.2c0.1,0.1,0.2,0.3,0.2,0.5c0,0.1,0,0.2-0.1,0.3s-0.1,0.2-0.2,0.2S32.4,49,32.3,49c-0.2,0-0.3,0-0.4-0.1
		s-0.2-0.2-0.2-0.3s-0.1-0.3-0.1-0.5c0-0.6,0.2-1,0.7-1c0.2,0,0.3,0,0.4,0.1c0.1,0.1,0.2,0.2,0.2,0.3h-0.2
		C32.6,47.3,32.5,47.2,32.3,47.3L32.3,47.3z M32,48c-0.1,0-0.1,0.1-0.2,0.1c0,0.1-0.1,0.1-0.1,0.2c0,0.1,0,0.2,0.1,0.3
		c0.1,0.1,0.2,0.1,0.3,0.1c0.1,0,0.2,0,0.3-0.1c0.1-0.1,0.1-0.2,0.1-0.3s0-0.2-0.1-0.3c-0.1-0.1-0.2-0.1-0.3-0.1
		C32.2,47.9,32.1,47.9,32,48L32,48z"/>
</g>
<g>
	<path class="st0" d="M10.9,25.3H13l-0.1,1.1h-0.3v3H13l-0.1,1.1h-2.1l0.1-1.1h0.5v-2.8l0.5-0.3h-1L10.9,25.3L10.9,25.3z"/>
	<path class="st0" d="M15.3,24.9h1.2v0.4h1.3c0.3,0,0.5,0.2,0.5,0.5v3.5c-0.1,0.5-0.3,0.9-0.5,1s-0.5,0.2-0.9,0.2v-1.2
		c0.2,0,0.3-0.5,0.3-1.5v-1.5h-0.6v3.9l-1.2,0.2v-4.1h-0.5v3.9l-1.2,0.2v-3.9l0.4-0.2h-0.5l0.3-1.1h1.5L15.3,24.9L15.3,24.9z"/>
	<path class="st0" d="M22.2,25.3c0.4,0.1,0.6,0.3,0.6,0.8v2c0,0.4-0.2,0.6-0.6,0.6h-1.6L20.3,28v1.7c-0.1,0.4-0.2,0.6-0.4,0.7
		c-0.2,0.1-0.5,0.1-1,0.1v-1c0.2,0,0.3-0.2,0.2-0.8v-2l0.6-0.3h-0.9l0.2-1.1L22.2,25.3L22.2,25.3z M20.2,26.4v1h1.5v-1H20.2z"/>
	<path class="st0" d="M23.5,25.3h3.7l-0.3,1.2H25V27h2l-0.2,1H25c0,0.5,0,0.9,0.1,1.1s0.3,0.3,0.5,0.3H27l-0.2,1.1
		c-1.1,0-1.8,0-2-0.1c-0.2-0.1-0.4-0.2-0.6-0.5c-0.2-0.2-0.3-0.5-0.4-1v-0.9h-0.6l0.2-1H24v-0.6h-0.7L23.5,25.3L23.5,25.3z"/>
	<path class="st0" d="M27.7,25.3H31c0.2,0,0.4,0.2,0.5,0.5v1.5c-0.1,0.4-0.2,0.6-0.3,0.7c-0.1,0.1-0.4,0.3-0.8,0.4l0.3,0.5
		c0.2,0.4,0.5,0.5,1,0.6l-0.1,1.2l-0.6-0.1c-0.4-0.1-0.8-0.5-1.3-1.3l-0.2-0.5l-0.6,0.3v1.4h-1.1v-1l-0.4-0.9l0.4-0.3v-1.6l0.5-0.3
		h-0.8L27.7,25.3L27.7,25.3z M28.8,26.4v1.5l1.1-0.5c0.3-0.1,0.4-0.3,0.4-0.5v-0.5L28.8,26.4L28.8,26.4z"/>
	<path class="st0" d="M32.1,25.3h2.1L34,26.4h-0.3v3h0.4l-0.1,1.1H32l0.1-1.1h0.5v-2.8l0.5-0.3h-1L32.1,25.3L32.1,25.3z"/>
	<path class="st0" d="M35.8,25.3v0.5l0.3-0.5h2.5c0.3,0.1,0.5,0.5,0.4,1.3v3.5c-0.1,0.3-0.3,0.4-0.7,0.4h-2.9
		c-0.4,0-0.7-0.2-0.8-0.6v-4.4L35.8,25.3L35.8,25.3z M35.8,26.4v3h2.1v-3H35.8z"/>
	<path class="st0" d="M44.9,25.3c0.7,0.2,1,0.7,1.1,1.5h-1c0-0.3-0.2-0.4-0.5-0.4h-1.4c-0.3,0.6-0.4,1.1-0.4,1.4s0.1,0.6,0.2,0.9
		c0.2,0.3,0.4,0.5,0.6,0.6s0.5,0.2,0.8,0.1c0.4,0,0.7-0.3,1-0.7l0.7,0.9c-0.4,0.4-0.7,0.6-1,0.8c-0.2,0.1-0.6,0.2-1,0.2
		s-0.8-0.1-1.1-0.2s-0.7-0.5-0.9-0.9s-0.4-1-0.4-1.5c0-0.6,0.1-0.9,0.2-1.1l0.8-0.3h-0.9l0.1-0.4l0.1-0.4l0.2-0.4L44.9,25.3
		L44.9,25.3z"/>
	<path class="st0" d="M46.4,25.3h1.2v1.8h1.7v-1.8h1.2v1.8h0.2l0.1,1h-0.3v1.7c-0.1,0.2-0.2,0.4-0.3,0.5c-0.1,0.1-0.3,0.1-0.5,0.2
		s-0.5,0.1-0.7,0.1v-1c0.2,0,0.4-0.1,0.4-0.3v-1.1h-1.4l-0.3-0.5v2.7l-1.2,0.2L46.4,25.3L46.4,25.3z"/>
	<path class="st0" d="M51.1,25.3h2.1L53,26.4h-0.3v3h0.4L53,30.5h-2.1l0.1-1.1h0.5v-2.8l0.5-0.3h-1L51.1,25.3L51.1,25.3z"/>
	<path class="st0" d="M53.6,25.3h1.1v0.8l0.1-0.3c0.5,0.1,0.9,0.3,1.1,0.4c0.2,0.2,0.5,0.4,0.7,0.8l0.1,0.1v-1.9h1.1v4.3
		c0,0.2-0.1,0.4-0.2,0.6c-0.2,0.2-0.6,0.3-1.2,0.3v-1.1c0.3,0,0.4-0.2,0.3-0.5c0-0.2,0-0.4-0.1-0.6c-0.1-0.2-0.3-0.5-0.7-0.8
		s-0.8-0.6-1.2-0.7v3.6h-1.1L53.6,25.3L53.6,25.3z"/>
	<path class="st0" d="M59.3,25.3v0.5l0.3-0.5h2.5c0.3,0.1,0.5,0.5,0.4,1.3v3.5c-0.1,0.3-0.3,0.4-0.7,0.4H59c-0.4,0-0.7-0.2-0.8-0.6
		v-4.4L59.3,25.3L59.3,25.3z M59.3,26.4v3h2.1v-3H59.3z"/>
</g>
<g>
	<path class="st0" d="M24.9,34.2l-0.4-0.7h-0.2v0.7h-0.4v-1.9h0.7c0.2,0,0.3,0,0.4,0.1s0.2,0.1,0.2,0.2c0,0.1,0.1,0.2,0.1,0.3
		c0,0.1,0,0.2-0.1,0.3c-0.1,0.1-0.2,0.2-0.3,0.2l0.5,0.8H24.9L24.9,34.2z M24.3,33.2h0.3c0.1,0,0.2,0,0.2-0.1S25,33,25,32.9
		c0-0.1,0-0.1-0.1-0.2c0,0-0.1-0.1-0.2-0.1h-0.3V33.2L24.3,33.2z"/>
	<path class="st0" d="M26.9,32.6v0.5h0.6v0.3h-0.6v0.5h0.7v0.3h-1.1v-1.9h1.1v0.3C27.6,32.6,26.9,32.6,26.9,32.6z"/>
	<path class="st0" d="M29,34.2c-0.1,0-0.2-0.1-0.2-0.2c-0.1-0.1-0.1-0.2-0.1-0.3h0.4c0,0.1,0,0.1,0.1,0.2c0,0,0.1,0.1,0.2,0.1
		s0.2,0,0.2-0.1c0,0,0.1-0.1,0.1-0.2c0-0.1,0-0.1,0-0.1s-0.1-0.1-0.1-0.1s-0.1,0-0.2-0.1c-0.1,0-0.2-0.1-0.3-0.1
		c-0.1,0-0.1-0.1-0.2-0.2s-0.1-0.2-0.1-0.3c0-0.1,0-0.2,0.1-0.3s0.1-0.1,0.2-0.2s0.2-0.1,0.3-0.1c0.2,0,0.3,0,0.5,0.1
		s0.2,0.2,0.2,0.4h-0.4c0-0.1,0-0.1-0.1-0.2c-0.1,0-0.1-0.1-0.2-0.1c-0.1,0-0.1,0-0.2,0.1c0,0-0.1,0.1-0.1,0.2c0,0,0,0.1,0,0.1
		c0,0,0.1,0.1,0.1,0.1s0.1,0,0.2,0.1c0.1,0,0.2,0.1,0.3,0.1c0.1,0,0.1,0.1,0.2,0.2s0.1,0.2,0.1,0.3c0,0.1,0,0.2-0.1,0.3
		c0,0.1-0.1,0.2-0.2,0.2s-0.2,0.1-0.4,0.1S29.1,34.2,29,34.2L29,34.2z"/>
	<path class="st0" d="M32.5,32.3v0.3H32v1.6h-0.4v-1.6h-0.5v-0.3H32.5z"/>
	<path class="st0" d="M34.7,33.8H34l-0.1,0.4h-0.4l0.7-1.9h0.4l0.7,1.9h-0.4L34.7,33.8L34.7,33.8z M34.6,33.5l-0.3-0.8l-0.3,0.8
		H34.6L34.6,33.5z"/>
	<path class="st0" d="M36.7,32.3v1.2c0,0.1,0,0.2,0.1,0.3s0.2,0.1,0.3,0.1s0.2,0,0.3-0.1c0.1-0.1,0.1-0.2,0.1-0.3v-1.2h0.4v1.2
		c0,0.2,0,0.3-0.1,0.4s-0.2,0.2-0.3,0.2c-0.1,0.1-0.2,0.1-0.4,0.1s-0.3,0-0.4-0.1s-0.2-0.1-0.3-0.2c-0.1-0.1-0.1-0.2-0.1-0.4v-1.2
		H36.7z"/>
	<path class="st0" d="M40,34.2l-0.4-0.7h-0.2v0.7H39v-1.9h0.7c0.2,0,0.3,0,0.4,0.1s0.2,0.1,0.2,0.2c0,0.1,0.1,0.2,0.1,0.3
		c0,0.1,0,0.2-0.1,0.3c-0.1,0.1-0.2,0.2-0.3,0.2l0.5,0.8H40L40,34.2z M39.4,33.2h0.3c0.1,0,0.2,0,0.2-0.1S40,33,40,32.9
		c0-0.1,0-0.1-0.1-0.2c0,0-0.1-0.1-0.2-0.1h-0.3V33.2L39.4,33.2z"/>
	<path class="st0" d="M42.7,33.8h-0.8l-0.1,0.4h-0.4l0.7-1.9h0.4l0.7,1.9h-0.4L42.7,33.8L42.7,33.8z M42.6,33.5l-0.3-0.8L42,33.5
		H42.6L42.6,33.5z"/>
	<path class="st0" d="M45.9,34.2h-0.4l-0.9-1.3v1.3h-0.4v-1.9h0.4l0.9,1.3v-1.3h0.4V34.2z"/>
	<path class="st0" d="M48.4,32.3v0.3h-0.5v1.6h-0.4v-1.6H47v-0.3H48.4z"/>
	<path class="st0" d="M49.8,32.6v0.5h0.6v0.3h-0.6v0.5h0.7v0.3h-1.1v-1.9h1.1v0.3C50.5,32.6,49.8,32.6,49.8,32.6z"/>
</g>
<path class="st0" d="M64.2,23.5c0.1,0.1,0.2,0.1,0.2,0.2s0.1,0.2,0.1,0.4s0,0.2-0.1,0.4s-0.1,0.2-0.2,0.2s-0.2,0.1-0.3,0.1
	s-0.2,0-0.3-0.1s-0.2-0.1-0.2-0.2s-0.1-0.2-0.1-0.4s0-0.2,0.1-0.4s0.1-0.2,0.2-0.2s0.2-0.1,0.3-0.1S64.1,23.4,64.2,23.5z M64.2,24.4
	c0.1-0.1,0.1-0.2,0.1-0.4s-0.1-0.3-0.1-0.4c-0.1-0.1-0.2-0.1-0.4-0.1s-0.3,0-0.4,0.1s-0.1,0.2-0.1,0.4s0.1,0.3,0.1,0.4
	c0.1,0.1,0.2,0.1,0.4,0.1S64.1,24.5,64.2,24.4z M64.1,24.1C64.1,24.1,64.1,24.1,64.1,24.1l0.1,0.4h-0.2l-0.1-0.2h0v0.2h-0.2v-0.7
	h0.3c0.1,0,0.1,0,0.2,0.1s0.1,0.1,0.1,0.2C64.1,24,64.1,24,64.1,24.1L64.1,24.1z M63.8,24h0.1c0,0,0,0,0,0c0,0,0,0,0,0s0,0,0,0
	c0,0,0,0,0,0h-0.1C63.8,23.9,63.8,24,63.8,24z"/>
<g>
	<path class="st1" d="M28.7,10.4c0,0.1,0,0.2,0,0.3c-0.1,1.9,0.2,3.7,1,5.4c0.8,1.6,1.9,2.8,3.5,3.7c0.9,0.5,1.8,0.7,2.8,0.9
		c2.7,0.4,5.5-0.7,7.2-2.6c1.1-1.2,1.7-2.6,2-4.1c0,0,0-0.1,0-0.1c0,0,0,0,0-0.1h-8.7v0l10.1-1.3c0,0.1,0,0.2,0,0.2
		c-0.2,3.4-1.6,6-4.5,7.9c-1.7,1.1-3.5,1.6-5.5,1.5c-1.5,0-3-0.4-4.3-1.2c-0.8-0.5-1.5-1.1-2.1-1.8c-1.1-1.3-1.7-2.8-2-4.5
		C28,13.4,28,12.2,28.4,11C28.5,10.8,28.6,10.6,28.7,10.4L28.7,10.4L28.7,10.4z"/>
	<path class="st1" d="M46.4,3.7c0.1,0.2,0.2,0.4,0.5,0.5l-0.3-0.6c0.3-0.1,0.5-0.3,0.7-0.4c0,0,0,0,0,0c0.2-0.1,0.5,0,0.6,0.1
		C48,3.4,48,3.7,47.8,3.8C47.7,3.9,47.6,4,47.5,4c-1.9,1.1-3.9,2.2-5.8,3.3c-2.6,1.5-5.3,3-7.9,4.4c-0.1,0.1-0.2,0.1-0.3,0.1
		c0,0-0.1,0-0.2,0c0-0.1,0-0.1,0.1-0.2c0,0,0.1-0.1,0.1-0.1c3.2-2,6.5-4,9.7-6c1-0.6,2-1.2,3-1.9C46.3,3.7,46.3,3.7,46.4,3.7z"/>
	<path class="st1" d="M47.4,5.2c0.2,0.4,0.3,0.4,0.5,0.6l-0.3-0.6C47.8,5,48,4.9,48.2,4.8c0.1,0,0.1,0,0.2,0c0.3,0,0.5,0.3,0.3,0.5
		c-0.1,0.2-0.2,0.3-0.4,0.4c-0.3,0.2-0.7,0.3-1,0.5c-4.5,2.1-8.9,4.2-13.4,6.3c-0.1,0-0.2,0.1-0.3,0.1c0,0-0.1,0-0.1-0.1
		c0,0,0-0.1,0-0.1c0.1-0.1,0.1-0.1,0.2-0.1c1.3-0.7,2.5-1.3,3.8-2c3.2-1.7,6.4-3.3,9.5-5C47.2,5.3,47.3,5.3,47.4,5.2L47.4,5.2z"/>
	<path class="st1" d="M35.8,19.5c-1.3-0.1-2.3-0.7-3.3-1.5c-1.4-1.2-2.2-2.7-2.6-4.5c-0.2-1.1-0.2-2.2,0.3-3.3
		c0.2-0.4,0.4-0.8,0.8-1.2c0,0.1,0,0.1,0,0.1c-0.5,1.2-0.6,2.5-0.3,3.9c0.3,1.4,1,2.7,1.9,3.8c0.9,1.1,2,2,3.2,2.7
		C35.7,19.4,35.7,19.5,35.8,19.5L35.8,19.5z"/>
	<path class="st1" d="M36.3,18.3c-0.5-0.2-0.9-0.4-1.3-0.7c-1.5-1-2.6-2.4-3.3-4.1c-0.3-0.7-0.4-1.4-0.4-2.2c0-0.4,0.1-0.8,0.3-1.2
		c0.3-0.5,0.7-0.6,1.1-0.3c0.4,0.3,0.6,0.6,0.8,1.1c0,0,0,0-0.1-0.1c0,0,0,0,0-0.1c-0.2-0.2-0.4-0.4-0.6-0.6
		c-0.1-0.1-0.2-0.1-0.2-0.1c-0.2-0.1-0.5,0-0.5,0.2c0,0.3-0.1,0.6-0.1,0.9c0,1.2,0.4,2.4,1,3.5c0.7,1.1,1.5,2.1,2.5,3
		C35.8,17.9,36,18.1,36.3,18.3L36.3,18.3z"/>
	<path class="st1" d="M40.4,19c-0.8,0.1-1.9-0.3-2.5-1.5c-0.5-1-0.3-2.3,0.5-2.9c0,0.1,0,0.1-0.1,0.2c-0.1,0.4-0.2,0.9-0.2,1.3
		c0.1,0.4,0.2,0.8,0.5,1c0.3,0.4,0.6,0.7,0.9,1c0.2,0.2,0.4,0.5,0.7,0.7C40.4,18.9,40.4,18.9,40.4,19L40.4,19z"/>
	<path class="st1" d="M27.9,15.4c-1.5-0.8-3-0.7-4.5-0.3c0.3-0.6,1.4-1.1,2.2-1.1C26.6,13.9,27.3,14.6,27.9,15.4L27.9,15.4z"/>
	<path class="st1" d="M42.1,16.8c-0.6,0-1-0.4-1-1c0-0.6,0.4-1,1-1c0.6,0,1,0.4,1,1C43.1,16.3,42.6,16.8,42.1,16.8L42.1,16.8z
		 M41.7,16.2c0.3,0,0.5-0.2,0.5-0.5c0-0.3-0.2-0.5-0.5-0.5c-0.3,0-0.5,0.2-0.5,0.5C41.2,16,41.4,16.2,41.7,16.2z"/>
	<path class="st1" d="M34.4,13.1c0,0.2,0,0.4,0,0.6c0.1,0.5,0.3,1,0.6,1.4c0.4,0.6,0.9,1.2,1.6,1.6c0,0,0.1,0.1,0.1,0.1
		c-0.1,0-0.1,0-0.2,0c-0.8-0.2-1.4-0.7-1.9-1.3c-0.3-0.3-0.5-0.7-0.7-1.1c-0.1-0.2-0.1-0.4-0.1-0.6C33.8,13.5,34,13.2,34.4,13.1
		L34.4,13.1z"/>
	<path class="st1" d="M35.7,14.6c-0.3-0.4-0.6-0.8-1.1-0.8c0-0.1,0.1-0.2,0.2-0.1c0.1,0,0.2,0,0.3,0.1
		C35.4,13.9,35.6,14.2,35.7,14.6L35.7,14.6z"/>
</g>
</svg>
