<?xml version="1.0" encoding="UTF-8"?><svg xmlns="http://www.w3.org/2000/svg" viewBox="0 0 75.3 50.84"><defs><style>.d{fill:#fff;}.e{fill:#ec0000;}.f{fill:#141414;}</style></defs><g id="a"/><g id="b"><g id="c"><path class="f" d="M26,41.74h45.1c2.3,0,4.2,1.9,4.2,4.2v.7c0,2.3-1.9,4.2-4.2,4.2H26c-2.3,0-4.2-1.9-4.2-4.2v-.7c0-2.3,1.9-4.2,4.2-4.2Z"/><path class="e" d="M4.2,41.74h31.2c2.3,0,4.2,1.9,4.2,4.2v.7c0,2.3-1.9,4.2-4.2,4.2H4.2c-2.3,0-4.2-1.8-4.2-4.2v-.7c0-2.3,1.9-4.2,4.2-4.2Z"/><g><path class="f" d="M10.9,22.14h2.1l-.1,1.1h-.3v3h.4l-.1,1.1h-2.1l.1-1.1h.5v-2.8l.5-.3h-1v-1h0Z"/><path class="f" d="M15.3,21.74h1.2v.4h1.3c.3,0,.5,.2,.5,.5v3.5c-.1,.5-.3,.9-.5,1s-.5,.2-.9,.2v-1.2c.2,0,.3-.5,.3-1.5v-1.5h-.6v3.9l-1.2,.2v-4.1h-.5v3.9l-1.2,.2v-3.9l.4-.2h-.5l.3-1.1h1.5l-.1-.3h0Z"/><path class="f" d="M22.2,22.14c.4,.1,.6,.3,.6,.8v2c0,.4-.2,.6-.6,.6h-1.6l-.3-.7v1.7c-.1,.4-.2,.6-.4,.7-.2,.1-.5,.1-1,.1v-1c.2,0,.3-.2,.2-.8v-2l.6-.3h-.9l.2-1.1h3.2Zm-2,1.1v1h1.5v-1h-1.5Z"/><path class="f" d="M23.5,22.14h3.7l-.3,1.2h-1.9v.5h2l-.2,1h-1.8c0,.5,0,.9,.1,1.1s.3,.3,.5,.3h1.4l-.2,1.1c-1.1,0-1.8,0-2-.1s-.4-.2-.6-.5c-.2-.2-.3-.5-.4-1v-.9h-.6l.2-1h.6v-.6h-.7l.2-1.1h0Z"/><path class="f" d="M27.7,22.14h3.3c.2,0,.4,.2,.5,.5v1.5c-.1,.4-.2,.6-.3,.7-.1,.1-.4,.3-.8,.4l.3,.5c.2,.4,.5,.5,1,.6l-.1,1.2-.6-.1c-.4-.1-.8-.5-1.3-1.3l-.2-.5-.6,.3v1.4h-1.1v-1l-.4-.9,.4-.3v-1.6l.5-.3h-.8l.2-1.1h0Zm1.1,1.1v1.5l1.1-.5c.3-.1,.4-.3,.4-.5v-.5h-1.5Z"/><path class="f" d="M32.1,22.14h2.1l-.2,1.1h-.3v3h.4l-.1,1.1h-2l.1-1.1h.5v-2.8l.5-.3h-1v-1h0Z"/><path class="f" d="M35.8,22.14v.5l.3-.5h2.5c.3,.1,.5,.5,.4,1.3v3.5c-.1,.3-.3,.4-.7,.4h-2.9c-.4,0-.7-.2-.8-.6v-4.4l1.2-.2h0Zm0,1.1v3h2.1v-3h-2.1Z"/><path class="f" d="M44.9,22.14c.7,.2,1,.7,1.1,1.5h-1c0-.3-.2-.4-.5-.4h-1.4c-.3,.6-.4,1.1-.4,1.4s.1,.6,.2,.9c.2,.3,.4,.5,.6,.6s.5,.2,.8,.1c.4,0,.7-.3,1-.7l.7,.9c-.4,.4-.7,.6-1,.8-.2,.1-.6,.2-1,.2s-.8-.1-1.1-.2-.7-.5-.9-.9-.4-1-.4-1.5c0-.6,.1-.9,.2-1.1l.8-.3h-.9l.1-.4,.1-.4,.2-.4,2.8-.1h0Z"/><path class="f" d="M46.4,22.14h1.2v1.8h1.7v-1.8h1.2v1.8h.2l.1,1h-.3v1.7c-.1,.2-.2,.4-.3,.5s-.3,.1-.5,.2-.5,.1-.7,.1v-1c.2,0,.4-.1,.4-.3v-1.1h-1.4l-.3-.5v2.7l-1.2,.2-.1-5.3h0Z"/><path class="f" d="M51.1,22.14h2.1l-.2,1.1h-.3v3h.4l-.1,1.1h-2.1l.1-1.1h.5v-2.8l.5-.3h-1l.1-1h0Z"/><path class="f" d="M53.6,22.14h1.1v.8l.1-.3c.5,.1,.9,.3,1.1,.4,.2,.2,.5,.4,.7,.8l.1,.1v-1.9h1.1v4.3c0,.2-.1,.4-.2,.6-.2,.2-.6,.3-1.2,.3v-1.1c.3,0,.4-.2,.3-.5,0-.2,0-.4-.1-.6s-.3-.5-.7-.8-.8-.6-1.2-.7v3.6h-1.1v-5h0Z"/><path class="f" d="M59.3,22.14v.5l.3-.5h2.5c.3,.1,.5,.5,.4,1.3v3.5c-.1,.3-.3,.4-.7,.4h-2.8c-.4,0-.7-.2-.8-.6v-4.4l1.1-.2h0Zm0,1.1v3h2.1v-3h-2.1Z"/></g><g><path class="f" d="M24.9,31.04l-.4-.7h-.2v.7h-.4v-1.9h.7c.2,0,.3,0,.4,.1s.2,.1,.2,.2,.1,.2,.1,.3,0,.2-.1,.3-.2,.2-.3,.2l.5,.8h-.5Zm-.6-1h.3c.1,0,.2,0,.2-.1s.2-.1,.2-.2,0-.1-.1-.2c0,0-.1-.1-.2-.1h-.3v.6h-.1Z"/><path class="f" d="M26.9,29.44v.5h.6v.3h-.6v.5h.7v.3h-1.1v-1.9h1.1v.3h-.7Z"/><path class="f" d="M29,31.04c-.1,0-.2-.1-.2-.2-.1-.1-.1-.2-.1-.3h.4q0,.1,.1,.2s.1,.1,.2,.1,.2,0,.2-.1c0,0,.1-.1,.1-.2v-.1l-.1-.1s-.1,0-.2-.1c-.1,0-.2-.1-.3-.1s-.1-.1-.2-.2-.1-.2-.1-.3,0-.2,.1-.3l.2-.2c.1-.1,.2-.1,.3-.1,.2,0,.3,0,.5,.1s.2,.2,.2,.4h-.4q0-.1-.1-.2c-.1,0-.1-.1-.2-.1s-.1,0-.2,.1c0,0-.1,.1-.1,.2v.1l.1,.1s.1,0,.2,.1c.1,0,.2,.1,.3,.1s.1,.1,.2,.2,.1,.2,.1,.3,0,.2-.1,.3c0,.1-.1,.2-.2,.2s-.2,.1-.4,.1h-.3Z"/><path class="f" d="M32.5,29.14v.3h-.5v1.6h-.4v-1.6h-.5v-.3h1.4Z"/><path class="f" d="M34.7,30.64h-.7l-.1,.4h-.4l.7-1.9h.4l.7,1.9h-.4l-.2-.4h0Zm-.1-.3l-.3-.8-.3,.8h.6Z"/><path class="f" d="M36.7,29.14v1.2c0,.1,0,.2,.1,.3s.2,.1,.3,.1,.2,0,.3-.1,.1-.2,.1-.3v-1.2h.4v1.2c0,.2,0,.3-.1,.4s-.2,.2-.3,.2c-.1,.1-.2,.1-.4,.1s-.3,0-.4-.1-.2-.1-.3-.2c-.1-.1-.1-.2-.1-.4v-1.2h.4Z"/><path class="f" d="M40,31.04l-.4-.7h-.2v.7h-.4v-1.9h.7c.2,0,.3,0,.4,.1s.2,.1,.2,.2,.1,.2,.1,.3,0,.2-.1,.3-.2,.2-.3,.2l.5,.8h-.5Zm-.6-1h.3c.1,0,.2,0,.2-.1s.1-.1,.1-.2,0-.1-.1-.2c0,0-.1-.1-.2-.1h-.3v.6h0Z"/><path class="f" d="M42.7,30.64h-.8l-.1,.4h-.4l.7-1.9h.4l.7,1.9h-.4l-.1-.4h0Zm-.1-.3l-.3-.8-.3,.8h.6Z"/><path class="f" d="M45.9,31.04h-.4l-.9-1.3v1.3h-.4v-1.9h.4l.9,1.3v-1.3h.4v1.9Z"/><path class="f" d="M48.4,29.14v.3h-.5v1.6h-.4v-1.6h-.5v-.3h1.4Z"/><path class="f" d="M49.8,29.44v.5h.6v.3h-.6v.5h.7v.3h-1.1v-1.9h1.1v.3h-.7Z"/></g><path class="f" d="M64.2,20.34c.1,.1,.2,.1,.2,.2s.1,.2,.1,.4,0,.2-.1,.4-.1,.2-.2,.2-.2,.1-.3,.1-.2,0-.3-.1-.2-.1-.2-.2-.1-.2-.1-.4,0-.2,.1-.4,.1-.2,.2-.2,.2-.1,.3-.1,.2,0,.3,.1Zm0,.9c.1-.1,.1-.2,.1-.4s-.1-.3-.1-.4c-.1-.1-.2-.1-.4-.1s-.3,0-.4,.1-.1,.2-.1,.4,.1,.3,.1,.4c.1,.1,.2,.1,.4,.1s.3,0,.4-.1Zm-.1-.3h0l.1,.4h-.2l-.1-.2h0v.2h-.2v-.7h.3q.1,0,.2,.1t.1,.2q-.2-.1-.2,0h0Zm-.3-.1h0c0-.1,0,0,0,0Z"/><g><path class="e" d="M28.7,7.24v.3c-.1,1.9,.2,3.7,1,5.4,.8,1.6,1.9,2.8,3.5,3.7,.9,.5,1.8,.7,2.8,.9,2.7,.4,5.5-.7,7.2-2.6,1.1-1.2,1.7-2.6,2-4.1v-.2h-8.7l10.1-1.3v.2c-.2,3.4-1.6,6-4.5,7.9-1.7,1.1-3.5,1.6-5.5,1.5-1.5,0-3-.4-4.3-1.2-.8-.5-1.5-1.1-2.1-1.8-1.1-1.3-1.7-2.8-2-4.5-.2-1.2-.2-2.4,.2-3.6l.3-.6h0Z"/><path class="e" d="M46.4,.54c.1,.2,.2,.4,.5,.5l-.3-.6c.3-.1,.5-.3,.7-.4h0c.2-.1,.5,0,.6,.1,.1,.1,.1,.4-.1,.5-.1,.1-.2,.2-.3,.2-1.9,1.1-3.9,2.2-5.8,3.3-2.6,1.5-5.3,3-7.9,4.4-.1,.1-.2,.1-.3,.1h-.2q0-.1,.1-.2l.1-.1c3.2-2,6.5-4,9.7-6,1-.6,2-1.2,3-1.9q.1,.1,.2,.1Z"/><path class="e" d="M47.4,2.04c.2,.4,.3,.4,.5,.6l-.3-.6c.2-.2,.4-.3,.6-.4h.2c.3,0,.5,.3,.3,.5-.1,.2-.2,.3-.4,.4-.3,.2-.7,.3-1,.5-4.5,2.1-8.9,4.2-13.4,6.3-.1,0-.2,.1-.3,.1,0,0-.1,0-.1-.1v-.1q.1-.1,.2-.1c1.3-.7,2.5-1.3,3.8-2,3.2-1.7,6.4-3.3,9.5-5,.2,0,.3,0,.4-.1h0Z"/><path class="e" d="M35.8,16.34c-1.3-.1-2.3-.7-3.3-1.5-1.4-1.2-2.2-2.7-2.6-4.5-.2-1.1-.2-2.2,.3-3.3,.2-.4,.4-.8,.8-1.2v.1c-.5,1.2-.6,2.5-.3,3.9,.3,1.4,1,2.7,1.9,3.8,.9,1.1,2,2,3.2,2.7-.1-.1-.1,0,0,0h0Z"/><path class="e" d="M36.3,15.14c-.5-.2-.9-.4-1.3-.7-1.5-1-2.6-2.4-3.3-4.1-.3-.7-.4-1.4-.4-2.2,0-.4,.1-.8,.3-1.2,.3-.5,.7-.6,1.1-.3s.6,.6,.8,1.1l-.1-.1v-.1l-.6-.6c-.1-.1-.2-.1-.2-.1-.2-.1-.5,0-.5,.2,0,.3-.1,.6-.1,.9,0,1.2,.4,2.4,1,3.5,.7,1.1,1.5,2.1,2.5,3,.3,.3,.5,.5,.8,.7h0Z"/><path class="e" d="M40.4,15.84c-.8,.1-1.9-.3-2.5-1.5-.5-1-.3-2.3,.5-2.9q0,.1-.1,.2c-.1,.4-.2,.9-.2,1.3,.1,.4,.2,.8,.5,1,.3,.4,.6,.7,.9,1,.2,.2,.4,.5,.7,.7q.2,.1,.2,.2h0Z"/><path class="e" d="M27.9,12.24c-1.5-.8-3-.7-4.5-.3,.3-.6,1.4-1.1,2.2-1.1,1-.1,1.7,.6,2.3,1.4h0Z"/><path class="e" d="M42.1,13.64c-.6,0-1-.4-1-1s.4-1,1-1,1,.4,1,1c0,.5-.5,1-1,1h0Zm-.4-.6c.3,0,.5-.2,.5-.5s-.2-.5-.5-.5-.5,.2-.5,.5,.2,.5,.5,.5Z"/><path class="e" d="M34.4,9.94v.6c.1,.5,.3,1,.6,1.4,.4,.6,.9,1.2,1.6,1.6l.1,.1h-.2c-.8-.2-1.4-.7-1.9-1.3-.3-.3-.5-.7-.7-1.1-.1-.2-.1-.4-.1-.6,0-.3,.2-.6,.6-.7h0Z"/><path class="e" d="M35.7,11.44c-.3-.4-.6-.8-1.1-.8,0-.1,.1-.2,.2-.1,.1,0,.2,0,.3,.1,.3,.1,.5,.4,.6,.8h0Z"/></g><g><path class="d" d="M3.47,45.72h0s0-.08,0-.12c0,0,0-.01,0-.02,0-.01,0-.02,0-.03,0-.02,0-.05,0-.07,0-.05,.02-.09,.03-.14,.01-.05,.03-.1,.05-.14,.04-.07,.08-.14,.13-.21,.03-.03,.05-.06,.08-.09,.07-.06,.14-.11,.22-.14,.08-.03,.16-.05,.24-.07,.02,0,.04,0,.06,0,.02,0,.03,0,.05,0h.06s.04,0,.05,0c.01,0,.03,0,.04,0,.07,.01,.12,.05,.16,.11,.05,.07,.06,.14,.08,.22,.03,.13,.06,.26,.09,.39,.02,.08,.03,.15,.04,.23,0,.02,0,.05,.01,.07,0,.02,0,.03,0,.05-.02,.07-.07,.11-.13,.14-.05,.03-.1,.05-.15,.07-.04,.02-.08,.03-.11,.06-.02,.01-.04,.03-.04,.05,0,.02,0,.03,0,.05,0,.06,.02,.11,.04,.16,.03,.08,.07,.16,.11,.23,.07,.12,.14,.24,.23,.35,.04,.06,.09,.12,.14,.17h0s0,.01,.01,.02c.03,.03,.06,.06,.09,.09,.02,.02,.03,.03,.05,.05,.07,.06,.14,.12,.21,.17,.05,.04,.11,.08,.16,.12,.04,.03,.09,.05,.14,.06,.03,0,.06,0,.09-.03,.04-.03,.06-.08,.09-.12,.04-.07,.09-.14,.17-.19,.04-.02,.08-.03,.12-.01,.08,.02,.15,.05,.23,.08,.09,.04,.18,.07,.27,.11,.09,.04,.17,.08,.25,.12,.05,.03,.1,.05,.14,.09,.03,.03,.05,.06,.05,.1h0s0,.06,0,.09c0,.03,0,.07-.02,.1-.02,.09-.05,.17-.09,.25-.04,.07-.09,.14-.14,.2-.06,.07-.14,.13-.22,.17-.05,.03-.09,.05-.14,.06-.06,.02-.12,.03-.18,.03h-.01s-.04,0-.06,0c0,0-.01,0-.02,0h-.06s-.04,0-.05,0c-.03,0-.06,0-.08,0-.03,0-.07-.01-.1-.02-.04,0-.07-.02-.11-.03-.04-.01-.08-.03-.12-.04-.05-.02-.1-.04-.14-.07-.05-.03-.1-.06-.15-.09-.07-.04-.13-.09-.2-.14-.05-.04-.11-.08-.16-.12-.05-.04-.1-.08-.15-.13-.04-.04-.08-.08-.12-.11l-.02-.02c-.06-.06-.12-.12-.18-.19-.07-.08-.14-.16-.21-.24-.08-.1-.16-.19-.23-.3-.06-.08-.11-.15-.16-.23-.04-.07-.09-.14-.13-.2-.03-.05-.06-.1-.08-.15-.03-.06-.06-.11-.08-.17-.03-.07-.06-.14-.09-.22-.02-.06-.04-.11-.05-.17,0-.04-.02-.07-.02-.11,0-.03-.01-.07-.01-.1,0-.01,0-.02,0-.03h0Z"/><path class="d" d="M5.75,44.25s.06,.02,.1,.02c.13,.03,.26,.08,.38,.13,.13,.06,.26,.13,.38,.21,.08,.06,.16,.12,.23,.18,.06,.05,.11,.1,.16,.16,.06,.07,.12,.14,.18,.22,.07,.1,.13,.2,.18,.31,.08,.15,.13,.32,.17,.48,.02,.09,.04,.19,.05,.28,0,.04,0,.07,.01,.11,0,.01,0,.03,0,.04,0,0,0,.01,0,.02,0,.02,0,.03,0,.05v.13s0,.01,0,.02c0,.03-.02,.06-.05,.07-.06,.03-.12,.02-.15-.04,0-.02-.01-.03,0-.05,0-.01,0-.02,0-.04,0-.02,0-.04,0-.07,0-.01,0-.03,0-.04,0-.02,0-.03,0-.05,0,0,0,0,0-.01,0-.01,0-.02,0-.03,0-.03,0-.05,0-.08,0-.03,0-.06-.01-.08,0-.04-.02-.07-.02-.11,0-.04-.02-.09-.03-.13,0-.03-.02-.06-.03-.09-.02-.05-.03-.09-.05-.14-.01-.03-.03-.06-.04-.09-.02-.04-.04-.08-.06-.12-.05-.1-.11-.19-.18-.27-.04-.05-.09-.11-.13-.16-.07-.07-.14-.14-.22-.2-.06-.05-.12-.09-.18-.13-.21-.14-.44-.23-.69-.29-.01,0-.03,0-.04,0-.04-.01-.06-.04-.07-.08-.01-.05,.02-.11,.07-.12h.01s.03,0,.04,0h0Z"/><path class="d" d="M7.01,46.4h0s0,.06,0,.08c0,.01,0,.03-.01,.04-.02,.03-.04,.04-.07,.05-.01,0-.03,0-.04,0-.05,0-.08-.05-.08-.09,0-.03,0-.05,0-.08,0-.01,0-.02,0-.03,0-.02,0-.04,0-.06,0-.02,0-.05,0-.07,0-.02,0-.04-.01-.06,0-.04-.02-.08-.03-.13-.01-.05-.03-.1-.05-.15-.02-.05-.04-.1-.06-.14-.05-.1-.11-.19-.19-.28-.05-.06-.11-.12-.18-.17-.07-.05-.13-.1-.21-.14-.05-.03-.09-.05-.14-.07-.07-.03-.14-.05-.21-.08-.02,0-.04,0-.06-.02-.03-.01-.05-.04-.06-.07-.02-.07,.05-.13,.12-.12,.25,.06,.47,.16,.67,.32,.06,.05,.12,.11,.18,.17,.09,.1,.17,.2,.23,.32,.07,.13,.13,.27,.16,.41,.02,.07,.03,.14,.04,.21,0,.03,0,.06,.01,.09,0,.02,0,.03,0,.05h0Z"/><path class="d" d="M6.42,46.4s-.04,.07-.08,.08c-.01,0-.02,0-.03,0-.04,0-.07-.04-.08-.08,0,0,0-.01,0-.02,0-.04,0-.08,0-.12,0-.07-.03-.14-.05-.2-.03-.07-.07-.14-.13-.2-.05-.06-.11-.1-.17-.14-.06-.04-.12-.06-.19-.08-.03,0-.06,0-.08-.03-.03-.02-.05-.04-.05-.08,0-.06,.02-.08,.08-.11,.01,0,.03,0,.04,0,.04,.01,.09,.02,.13,.04,.11,.04,.2,.1,.29,.17,.1,.09,.18,.19,.24,.32,.04,.08,.06,.16,.08,.25,0,.03,0,.07,.01,.1,0,.03,0,.06,0,.09h0Z"/><path class="d" d="M7.59,46.61v-.19h0v.18h0Z"/><path class="d" d="M3.47,45.6v.11h0v-.1h0Z"/><path class="d" d="M6.81,46.38s0,.07,0,.11c0,0,0-.01,0-.02v-.09Z"/><path class="d" d="M6.42,46.4v-.09s0,.02,0,.03c0,.02,0,.04,0,.06h0Z"/><path class="d" d="M7.05,47.79v-.08s0,.05,0,.08Z"/><path class="d" d="M7.01,46.48v-.07s0,.05,0,.07Z"/><path class="d" d="M6.17,48.6s.05,0,.07,0c-.02,0-.05,0-.07,0Z"/><path class="d" d="M7.39,46.49s0,.04,0,.07v-.07Z"/><path class="d" d="M4.45,44.69s-.04,0-.05,0c.02,0,.04,0,.05,0Z"/><path class="d" d="M4.87,45.77s0-.03,0-.05c0,.02,0,.03,0,.05Z"/><path class="d" d="M6.05,48.6s.04,0,.05,0c-.02,0-.04,0-.05,0Z"/><path class="d" d="M7.01,46.4s0-.03,0-.05c0,.02,0,.03,0,.05Z"/><path class="d" d="M4.34,44.69s-.03,0-.05,0c.02,0,.03,0,.05,0Z"/><path class="d" d="M7.39,46.4s0,.03,0,.05c0-.02,0-.03,0-.05Z"/><path class="d" d="M5.75,44.25h-.04s.03,0,.04,0Z"/><path class="d" d="M5.67,45.43h-.04s.03,0,.04,0Z"/><path class="d" d="M4.44,46.13s0-.03,0-.05v.05Z"/><path class="d" d="M7.59,46.41s0-.03,0-.04c0,.01,0,.03,0,.04Z"/><path class="d" d="M6.9,46.57s.03,0,.04,0c-.01,0-.03,0-.04,0Z"/><path class="d" d="M4.71,47.83s.01,.01,.02,.02c0,0-.02,0-.02-.02Z"/><path class="d" d="M3.47,45.55s0,.02,0,.03c0-.01,0-.02,0-.03Z"/><path class="d" d="M3.47,45.72s0,.02,0,.03c0-.01,0-.02,0-.03Z"/><path class="d" d="M7.39,46.35s0,.02,0,.03c0-.01,0-.02,0-.03Z"/><path class="d" d="M6.31,46.48h.03s-.02,0-.03,0Z"/><path class="d" d="M4.98,47.06h-.01s.02-.01,.01,0Z"/></g><path class="d" d="M43.65,43.62c-.59,.02-1.16,.34-1.53,.98-.26,.45-.33,.94-.16,1.45,.08,.25,.19,.48,.31,.71,.42,.82,.94,1.57,1.49,2.31,.04,.05,.05,.05,.09,0,.22-.3,.43-.59,.64-.9,.38-.57,.75-1.15,1.02-1.78,.11-.26,.22-.53,.22-.82,.02-1.07-.86-1.95-2.08-1.94Zm.15,2.86c-.52,0-.93-.42-.93-.94,0-.51,.42-.93,.93-.93,.52,0,.94,.42,.93,.94,0,.51-.42,.93-.94,.92h0Z"/><g><path class="d" d="M47.87,45.79c.1-.17,.23-.3,.4-.4s.36-.14,.57-.14c.24,0,.46,.06,.64,.19,.18,.13,.31,.3,.39,.52h-.5c-.05-.1-.12-.18-.21-.24-.09-.05-.2-.08-.31-.08-.13,0-.24,.03-.34,.09-.1,.06-.18,.14-.23,.25s-.08,.24-.08,.38,.03,.27,.08,.38c.06,.11,.13,.19,.23,.25,.1,.06,.21,.09,.34,.09,.12,0,.22-.03,.31-.08,.09-.05,.16-.13,.21-.24h.5c-.07,.22-.2,.4-.38,.52-.18,.12-.4,.19-.64,.19-.21,0-.4-.05-.57-.14s-.3-.23-.4-.4c-.1-.17-.15-.36-.15-.58s.05-.41,.15-.58Z"/><path class="d" d="M50.68,45.15v2.32h-.44v-2.32h.44Z"/><path class="d" d="M51.11,47.41c-.05-.05-.08-.11-.08-.18s.03-.13,.08-.18c.05-.05,.12-.07,.2-.07s.14,.02,.19,.07c.05,.05,.08,.11,.08,.18s-.02,.13-.08,.18c-.05,.05-.11,.07-.19,.07s-.14-.02-.2-.07Z"/><path class="d" d="M52.57,45.58v-.4h.76v2.28h-.45v-1.88h-.3Z"/><path class="d" d="M55.29,45.56h-1.02v.54c.04-.05,.11-.1,.19-.13s.17-.05,.26-.05c.17,0,.3,.04,.41,.11,.11,.07,.18,.17,.23,.28,.05,.11,.07,.24,.07,.37,0,.24-.07,.43-.21,.58-.14,.15-.33,.22-.58,.22-.24,0-.43-.06-.57-.18-.14-.12-.22-.27-.24-.47h.43c.02,.08,.06,.15,.13,.2,.07,.05,.15,.08,.25,.08,.12,0,.22-.04,.28-.12,.06-.08,.09-.18,.09-.31s-.03-.23-.1-.3c-.06-.07-.16-.1-.28-.1-.09,0-.16,.02-.22,.07-.06,.04-.1,.1-.13,.18h-.42v-1.34h1.42v.39Z"/><path class="d" d="M56.85,45.55c-.05-.04-.12-.07-.22-.07-.14,0-.25,.06-.32,.17-.07,.12-.1,.3-.1,.57,.05-.08,.12-.15,.22-.2,.1-.05,.2-.07,.31-.07,.14,0,.26,.03,.36,.09,.1,.06,.19,.14,.24,.26,.06,.11,.09,.25,.09,.4,0,.15-.03,.28-.09,.4-.06,.12-.15,.21-.26,.27s-.25,.1-.41,.1c-.22,0-.39-.05-.51-.14-.12-.1-.21-.23-.26-.4-.05-.17-.07-.39-.07-.64,0-.38,.07-.67,.2-.87s.34-.29,.62-.29c.22,0,.39,.06,.51,.18s.19,.27,.21,.44h-.41c-.02-.09-.06-.15-.11-.2Zm-.49,.86c-.08,.06-.11,.16-.11,.28s.03,.22,.1,.29c.07,.07,.17,.11,.3,.11,.11,0,.2-.03,.27-.1s.1-.16,.1-.28-.03-.22-.1-.29c-.06-.07-.16-.11-.28-.11-.11,0-.2,.03-.28,.1Z"/><path class="d" d="M60.5,46.06l-.1,.48h.4v.39h-.48l-.11,.53h-.42l.11-.53h-.57l-.11,.53h-.41l.11-.53h-.47v-.39h.56l.1-.48h-.47v-.39h.55l.11-.52h.41l-.11,.52h.57l.11-.52h.42l-.11,.52h.4v.39h-.49Zm-.42,0h-.57l-.1,.48h.57l.1-.48Z"/><path class="d" d="M61.37,45.75c0-.11,.03-.22,.09-.31,.06-.09,.14-.17,.26-.22,.12-.06,.26-.08,.42-.08s.31,.03,.42,.08c.12,.06,.2,.13,.26,.22,.06,.09,.09,.2,.09,.31s-.03,.22-.08,.3-.13,.15-.23,.2c.11,.05,.2,.12,.27,.22,.06,.1,.1,.21,.1,.34,0,.14-.04,.27-.11,.37-.07,.11-.17,.19-.3,.24-.13,.06-.27,.08-.42,.08s-.3-.03-.42-.08c-.12-.06-.22-.14-.29-.24s-.11-.23-.11-.37c0-.13,.03-.25,.1-.34s.15-.17,.27-.22c-.21-.11-.31-.28-.31-.5Zm.48,.79c-.07,.06-.11,.15-.11,.26,0,.1,.04,.19,.11,.26,.07,.07,.17,.1,.29,.1s.22-.03,.29-.1c.07-.07,.11-.15,.11-.25,0-.11-.04-.2-.11-.26-.07-.06-.17-.09-.29-.09s-.22,.03-.29,.09Zm.54-.96c-.06-.06-.15-.08-.25-.08s-.19,.03-.25,.08c-.06,.06-.09,.14-.09,.24,0,.09,.03,.17,.1,.23,.06,.06,.15,.08,.25,.08s.18-.03,.25-.09c.06-.06,.1-.13,.1-.23,0-.1-.03-.18-.09-.24Z"/><path class="d" d="M64.7,46.16v.37h-1.33v-.37h1.33Z"/><path class="d" d="M65.28,46.97c.2-.17,.36-.31,.48-.42,.12-.11,.22-.23,.3-.35,.08-.12,.12-.24,.12-.36,0-.11-.02-.19-.08-.25-.05-.06-.13-.09-.23-.09s-.18,.03-.24,.11c-.06,.07-.09,.17-.09,.29h-.43c0-.25,.08-.44,.22-.57s.32-.19,.54-.19c.24,0,.42,.06,.55,.19,.13,.13,.19,.29,.19,.5,0,.16-.04,.32-.13,.47-.09,.15-.19,.28-.3,.39-.11,.11-.26,.24-.44,.4h.92v.36h-1.55v-.33l.16-.14Z"/><path class="d" d="M66.89,45.58v-.4h.76v2.28h-.45v-1.88h-.3Z"/></g><g><path class="d" d="M10.44,44.21c-.16,0-.28,.06-.36,.18-.08,.12-.12,.33-.12,.61,.04-.09,.11-.17,.21-.22,.1-.05,.2-.08,.32-.08,.19,0,.33,.06,.44,.17,.11,.12,.17,.27,.17,.48,0,.12-.02,.23-.07,.33-.05,.1-.12,.17-.22,.23-.1,.06-.21,.09-.35,.09-.19,0-.33-.04-.43-.12-.1-.08-.18-.2-.22-.34-.04-.15-.06-.33-.06-.54,0-.66,.23-.99,.69-.99,.18,0,.32,.05,.42,.14,.1,.1,.16,.22,.18,.36h-.23c-.04-.2-.16-.3-.37-.3Zm-.22,.75c-.07,.03-.12,.08-.17,.14-.04,.06-.06,.14-.06,.23,0,.14,.04,.25,.12,.33,.08,.09,.19,.13,.34,.13,.13,0,.23-.04,.3-.12,.07-.08,.11-.18,.11-.32,0-.14-.04-.25-.11-.33s-.18-.12-.32-.12c-.08,0-.15,.02-.22,.05Z"/><path class="d" d="M12.64,44.23l-.75,1.76h-.25l.76-1.74h-1.04v-.21h1.28v.19Z"/><path class="d" d="M14.11,44.23l-.75,1.76h-.25l.76-1.74h-1.04v-.21h1.28v.19Z"/><path class="d" d="M15.63,44.25h-.95v.62c.04-.06,.1-.1,.18-.14,.08-.04,.17-.06,.26-.06,.15,0,.27,.03,.36,.09,.09,.06,.16,.14,.2,.24s.06,.2,.06,.31c0,.13-.02,.25-.07,.35-.05,.1-.12,.18-.22,.24-.1,.06-.22,.09-.37,.09-.19,0-.34-.05-.46-.15s-.19-.23-.21-.39h.24c.02,.1,.07,.18,.15,.24,.08,.06,.17,.09,.29,.09,.14,0,.25-.04,.32-.13,.07-.09,.11-.2,.11-.34s-.04-.25-.11-.33c-.07-.08-.18-.11-.32-.11-.1,0-.18,.02-.25,.07-.07,.05-.12,.11-.16,.19h-.23v-1.1h1.17v.22Z"/><path class="d" d="M16.02,45.56v-.19l.95-1.31h.29v1.29h.27v.21h-.27v.43h-.24v-.43h-1Zm1.01-1.24l-.73,1.03h.73v-1.03Z"/><path class="d" d="M18.29,45.34c.13-.12,.24-.24,.33-.37,.09-.13,.13-.26,.13-.38,0-.12-.03-.21-.09-.28s-.15-.1-.27-.1-.22,.04-.28,.11-.1,.18-.11,.31h-.24c0-.2,.07-.36,.18-.47,.12-.11,.26-.16,.45-.16s.33,.05,.44,.15c.11,.1,.16,.24,.16,.42,0,.15-.04,.29-.13,.44-.09,.14-.19,.27-.3,.37s-.26,.23-.43,.37h.93v.21h-1.3v-.18c.23-.18,.41-.33,.54-.45Z"/><path class="d" d="M20.05,44.21c-.16,0-.28,.06-.36,.18-.08,.12-.12,.33-.12,.61,.04-.09,.11-.17,.21-.22s.2-.08,.32-.08c.19,0,.33,.06,.44,.17,.11,.12,.17,.27,.17,.48,0,.12-.02,.23-.07,.33s-.12,.17-.22,.23c-.1,.06-.21,.09-.35,.09-.19,0-.33-.04-.43-.12-.1-.08-.18-.2-.22-.34-.04-.15-.06-.33-.06-.54,0-.66,.23-.99,.69-.99,.18,0,.32,.05,.42,.14,.1,.1,.16,.22,.18,.36h-.23c-.04-.2-.16-.3-.37-.3Zm-.22,.75c-.07,.03-.12,.08-.17,.14-.04,.06-.06,.14-.06,.23,0,.14,.04,.25,.12,.33,.08,.09,.19,.13,.34,.13,.13,0,.23-.04,.3-.12,.07-.08,.11-.18,.11-.32,0-.14-.04-.25-.11-.33-.07-.08-.18-.12-.32-.12-.08,0-.15,.02-.22,.05Z"/><path class="d" d="M22.01,43.45l-.74,3h-.24l.74-3h.25Z"/><path class="d" d="M23.58,44.25h-.95v.62c.04-.06,.1-.1,.18-.14s.17-.06,.26-.06c.15,0,.27,.03,.36,.09,.09,.06,.16,.14,.2,.24s.06,.2,.06,.31c0,.13-.02,.25-.07,.35-.05,.1-.12,.18-.22,.24s-.22,.09-.37,.09c-.19,0-.34-.05-.46-.15s-.19-.23-.21-.39h.24c.02,.1,.07,.18,.15,.24,.08,.06,.17,.09,.29,.09,.14,0,.25-.04,.32-.13,.07-.09,.11-.2,.11-.34s-.04-.25-.11-.33c-.07-.08-.18-.11-.32-.11-.1,0-.18,.02-.25,.07-.07,.05-.12,.11-.16,.19h-.23v-1.1h1.17v.22Z"/><path class="d" d="M24.54,45.34c.13-.12,.24-.24,.33-.37,.09-.13,.13-.26,.13-.38,0-.12-.03-.21-.09-.28s-.15-.1-.27-.1-.22,.04-.28,.11-.1,.18-.11,.31h-.24c0-.2,.07-.36,.18-.47,.12-.11,.26-.16,.45-.16s.33,.05,.44,.15c.11,.1,.16,.24,.16,.42,0,.15-.04,.29-.13,.44-.09,.14-.19,.27-.3,.37s-.26,.23-.43,.37h.93v.21h-1.3v-.18c.23-.18,.41-.33,.54-.45Z"/><path class="d" d="M26.09,45.34c.13-.12,.24-.24,.33-.37,.09-.13,.13-.26,.13-.38,0-.12-.03-.21-.09-.28s-.15-.1-.27-.1-.22,.04-.28,.11-.1,.18-.11,.31h-.24c0-.2,.07-.36,.18-.47,.12-.11,.26-.16,.45-.16s.33,.05,.44,.15c.11,.1,.16,.24,.16,.42,0,.15-.04,.29-.13,.44-.09,.14-.19,.27-.3,.37s-.26,.23-.43,.37h.93v.21h-1.3v-.18c.23-.18,.41-.33,.54-.45Z"/><path class="d" d="M27.64,45.34c.13-.12,.24-.24,.33-.37,.09-.13,.13-.26,.13-.38,0-.12-.03-.21-.09-.28s-.15-.1-.27-.1-.22,.04-.28,.11-.1,.18-.11,.31h-.24c0-.2,.07-.36,.18-.47,.12-.11,.26-.16,.45-.16s.33,.05,.44,.15c.11,.1,.16,.24,.16,.42,0,.15-.04,.29-.13,.44-.09,.14-.19,.27-.3,.37s-.26,.23-.43,.37h.93v.21h-1.3v-.18c.23-.18,.41-.33,.54-.45Z"/><path class="d" d="M28.62,44.27v-.22h.51v1.95h-.25v-1.73h-.26Z"/><path class="d" d="M30.06,45.34c.13-.12,.24-.24,.33-.37,.09-.13,.13-.26,.13-.38,0-.12-.03-.21-.09-.28s-.15-.1-.27-.1-.22,.04-.28,.11-.1,.18-.11,.31h-.24c0-.2,.07-.36,.18-.47,.12-.11,.26-.16,.45-.16s.33,.05,.44,.15c.11,.1,.16,.24,.16,.42,0,.15-.04,.29-.13,.44-.09,.14-.19,.27-.3,.37s-.26,.23-.43,.37h.93v.21h-1.3v-.18c.23-.18,.41-.33,.54-.45Z"/><path class="d" d="M31.29,44.14c.12-.09,.26-.14,.45-.14,.12,0,.23,.02,.32,.07,.09,.04,.16,.1,.2,.18s.07,.16,.07,.26c0,.11-.03,.21-.1,.29s-.15,.13-.25,.16h0c.12,.04,.21,.1,.28,.18s.1,.2,.1,.33c0,.1-.02,.19-.07,.28-.05,.08-.12,.15-.21,.19s-.21,.07-.34,.07c-.19,0-.35-.05-.47-.15s-.19-.24-.21-.43h.24c.01,.11,.06,.2,.13,.26,.08,.07,.18,.1,.3,.1s.22-.03,.29-.1,.1-.15,.1-.26c0-.14-.05-.23-.14-.29-.09-.06-.23-.09-.41-.09h-.06v-.21h.06c.17,0,.29-.03,.38-.08,.08-.05,.13-.14,.13-.25,0-.1-.03-.17-.09-.23-.06-.06-.15-.09-.27-.09s-.2,.03-.27,.09c-.07,.06-.11,.13-.12,.23h-.24c.01-.17,.08-.3,.19-.39Z"/><path class="d" d="M9.89,47.37c.12-.1,.27-.15,.47-.15,.13,0,.24,.02,.34,.07,.09,.05,.16,.11,.21,.19,.05,.08,.07,.17,.07,.27,0,.11-.03,.21-.09,.29-.06,.08-.13,.13-.21,.16h0c.1,.04,.19,.1,.24,.18,.06,.08,.09,.19,.09,.32,0,.11-.02,.2-.07,.29s-.12,.15-.22,.2-.21,.07-.35,.07c-.2,0-.37-.05-.5-.15s-.2-.25-.2-.45h.37c0,.09,.03,.16,.09,.21s.13,.08,.23,.08c.09,0,.16-.03,.21-.08,.05-.05,.07-.12,.07-.2,0-.11-.03-.19-.1-.23-.07-.05-.17-.07-.32-.07h-.08v-.31h.08c.26,0,.38-.09,.38-.26,0-.08-.02-.14-.07-.18-.05-.04-.11-.06-.2-.06s-.15,.02-.2,.07c-.05,.05-.07,.1-.08,.17h-.37c0-.18,.07-.32,.19-.42Z"/><path class="d" d="M11.27,47.62v-.35h.65v1.97h-.39v-1.62h-.26Z"/><path class="d" d="M12.27,48.85v-.3l.88-1.26h.44v1.23h.24v.33h-.24v.38h-.38v-.38h-.95Zm.97-1.16l-.55,.83h.55v-.83Z"/><path class="d" d="M14.06,48.85v-.3l.88-1.26h.44v1.23h.24v.33h-.24v.38h-.38v-.38h-.95Zm.97-1.16l-.55,.83h.55v-.83Z"/><path class="d" d="M17.18,47.59h-.88v.46s.09-.09,.16-.11,.14-.04,.22-.04c.14,0,.26,.03,.35,.09,.09,.06,.16,.14,.2,.24,.04,.1,.06,.2,.06,.31,0,.21-.06,.37-.18,.5-.12,.13-.29,.19-.5,.19-.21,0-.37-.05-.49-.15-.12-.1-.19-.24-.21-.4h.37c.02,.07,.05,.13,.11,.17s.13,.06,.22,.06c.11,0,.19-.03,.24-.1,.05-.07,.08-.15,.08-.26s-.03-.2-.08-.26c-.06-.06-.14-.09-.24-.09-.08,0-.14,.02-.19,.06s-.09,.09-.11,.15h-.36v-1.16h1.22v.33Z"/><path class="d" d="M17.66,47.76c0-.1,.02-.19,.07-.27,.05-.08,.12-.14,.22-.19,.1-.05,.22-.07,.37-.07s.27,.02,.37,.07c.1,.05,.17,.11,.22,.19,.05,.08,.07,.17,.07,.27s-.02,.19-.07,.26c-.05,.07-.11,.13-.19,.17,.1,.04,.18,.11,.23,.19,.06,.08,.08,.18,.08,.29,0,.12-.03,.23-.09,.32-.06,.09-.15,.16-.26,.21-.11,.05-.23,.07-.36,.07s-.26-.02-.36-.07c-.11-.05-.19-.12-.25-.21-.06-.09-.09-.2-.09-.32,0-.11,.03-.21,.08-.3s.13-.15,.23-.19c-.18-.09-.27-.24-.27-.43Zm.41,.68c-.06,.05-.1,.13-.1,.22,0,.09,.03,.16,.09,.22,.06,.06,.15,.09,.25,.09s.19-.03,.25-.09c.06-.06,.09-.13,.09-.22,0-.1-.03-.17-.09-.22s-.15-.08-.25-.08-.19,.03-.25,.08Zm.47-.83c-.05-.05-.13-.07-.22-.07s-.16,.02-.22,.07c-.05,.05-.08,.12-.08,.21,0,.08,.03,.15,.08,.19,.05,.05,.13,.07,.21,.07s.16-.02,.21-.07c.06-.05,.08-.11,.08-.2,0-.09-.03-.16-.08-.21Z"/><path class="d" d="M19.53,47.37c.12-.1,.27-.15,.47-.15,.13,0,.24,.02,.34,.07,.09,.05,.16,.11,.21,.19,.05,.08,.07,.17,.07,.27,0,.11-.03,.21-.09,.29-.06,.08-.13,.13-.21,.16h0c.1,.04,.19,.1,.24,.18,.06,.08,.09,.19,.09,.32,0,.11-.02,.2-.07,.29-.05,.08-.12,.15-.22,.2s-.21,.07-.35,.07c-.2,0-.37-.05-.5-.15s-.2-.25-.2-.45h.37c0,.09,.03,.16,.09,.21s.13,.08,.23,.08c.09,0,.16-.03,.21-.08s.07-.12,.07-.2c0-.11-.03-.19-.1-.23-.07-.05-.17-.07-.32-.07h-.08v-.31h.08c.26,0,.38-.09,.38-.26,0-.08-.02-.14-.07-.18-.05-.04-.11-.06-.2-.06s-.15,.02-.2,.07c-.05,.05-.07,.1-.08,.17h-.37c0-.18,.07-.32,.19-.42Z"/><path class="d" d="M21.49,48.86c.05,.04,.12,.06,.21,.06,.11,0,.19-.05,.24-.14,.05-.09,.08-.25,.08-.47-.04,.06-.1,.1-.17,.14-.07,.03-.16,.05-.24,.05-.12,0-.22-.02-.31-.07s-.17-.12-.22-.21c-.05-.09-.08-.21-.08-.34,0-.2,.06-.36,.18-.48,.12-.12,.28-.18,.49-.18,.26,0,.44,.08,.54,.25,.11,.16,.16,.41,.16,.74,0,.23-.02,.43-.06,.58-.04,.15-.11,.26-.21,.34-.1,.08-.23,.12-.4,.12-.13,0-.25-.03-.34-.08-.09-.05-.17-.12-.22-.2-.05-.08-.08-.18-.09-.28h.35c.01,.08,.05,.14,.1,.18Zm.41-.76c.05-.06,.08-.14,.08-.23,0-.11-.03-.19-.09-.25-.06-.06-.13-.09-.23-.09s-.17,.03-.23,.09-.09,.14-.09,.24,.03,.17,.08,.23,.14,.09,.25,.09c.09,0,.17-.03,.22-.09Z"/><path class="d" d="M23.18,48.86c.05,.04,.12,.06,.21,.06,.11,0,.19-.05,.24-.14,.05-.09,.08-.25,.08-.47-.04,.06-.1,.1-.17,.14-.07,.03-.16,.05-.24,.05-.12,0-.22-.02-.31-.07s-.17-.12-.22-.21c-.05-.09-.08-.21-.08-.34,0-.2,.06-.36,.18-.48,.12-.12,.28-.18,.49-.18,.26,0,.44,.08,.54,.25,.11,.16,.16,.41,.16,.74,0,.23-.02,.43-.06,.58-.04,.15-.11,.26-.21,.34-.1,.08-.23,.12-.4,.12-.13,0-.25-.03-.34-.08-.09-.05-.17-.12-.22-.2-.05-.08-.08-.18-.09-.28h.35c.01,.08,.05,.14,.1,.18Zm.41-.76c.05-.06,.08-.14,.08-.23,0-.11-.03-.19-.09-.25-.06-.06-.13-.09-.23-.09s-.17,.03-.23,.09-.09,.14-.09,.24,.03,.17,.08,.23,.14,.09,.25,.09c.09,0,.17-.03,.22-.09Z"/><path class="d" d="M24.29,47.62v-.35h.65v1.97h-.39v-1.62h-.26Z"/></g></g></g></svg>